Scada-Bold.ufo
<glyph name="plus" format="2">
  <advance width="490"/>
  <unicode hex="002B"/>
  <outline>
    <contour>
      <point x="295" y="115" type="line"/>
      <point x="295" y="280" type="line"/>
      <point x="460" y="280" type="line"/>
      <point x="460" y="380" type="line"/>
      <point x="295" y="380" type="line"/>
      <point x="295" y="545" type="line"/>
      <point x="195" y="545" type="line"/>
      <point x="195" y="380" type="line"/>
      <point x="30" y="380" type="line"/>
      <point x="30" y="280" type="line"/>
      <point x="195" y="280" type="line"/>
      <point x="195" y="115" type="line"/>
    </contour>
  </outline>
</glyph>
<glyph name="zero" format="2">
  <advance width="610"/>
  <unicode hex="0030"/>
  <outline>
    <contour>
      <point x="305" y="-10" type="curve" smooth="yes"/>
      <point x="454" y="-10"/>
      <point x="560" y="95"/>
      <point x="560" y="350" type="curve" smooth="yes"/>
      <point x="560" y="605"/>
      <point x="454" y="710"/>
      <point x="305" y="710" type="curve" smooth="yes"/>
      <point x="155" y="710"/>
      <point x="50" y="605"/>
      <point x="50" y="350" type="curve" smooth="yes"/>
      <point x="50" y="95"/>
      <point x="155" y="-10"/>
    </contour>
    <contour>
      <point x="305" y="80" type="curve" smooth="yes"/>
      <point x="245" y="80"/>
      <point x="190" y="135"/>
      <point x="190" y="350" type="curve" smooth="yes"/>
      <point x="190" y="565"/>
      <point x="245" y="620"/>
      <point x="305" y="620" type="curve" smooth="yes"/>
      <point x="365" y="620"/>
      <point x="420" y="565"/>
      <point x="420" y="350" type="curve" smooth="yes"/>
      <point x="420" y="135"/>
      <point x="365" y="80"/>
    </contour>
  </outline>
</glyph>
<glyph name="four" format="2">
  <advance width="560"/>
  <unicode hex="0034"/>
  <outline>
    <contour>
      <point x="470" y="0" type="line"/>
      <point x="470" y="160" type="line"/>
      <point x="540" y="160" type="line"/>
      <point x="540" y="250" type="line"/>
      <point x="470" y="250" type="line"/>
      <point x="470" y="700" type="line"/>
      <point x="340" y="700" type="line"/>
      <point x="10" y="250" type="line"/>
      <point x="10" y="160" type="line"/>
      <point x="330" y="160" type="line"/>
      <point x="330" y="0" type="line"/>
    </contour>
    <contour>
      <point x="305" y="460" type="line"/>
      <point x="316" y="473"/>
      <point x="323" y="488"/>
      <point x="328" y="500" type="curve" smooth="yes"/>
      <point x="331" y="507"/>
      <point x="333" y="514"/>
      <point x="336" y="520" type="curve"/>
      <point x="340" y="520" type="line"/>
      <point x="338" y="514"/>
      <point x="336" y="508"/>
      <point x="335" y="501" type="curve"/>
      <point x="332" y="489"/>
      <point x="330" y="475"/>
      <point x="330" y="460" type="curve" smooth="yes"/>
      <point x="330" y="250" type="line"/>
      <point x="150" y="250" type="line"/>
    </contour>
  </outline>
</glyph>
<glyph name="five" format="2">
  <advance width="540"/>
  <unicode hex="0035"/>
  <outline>
    <contour>
      <point x="240" y="-10" type="curve" smooth="yes"/>
      <point x="420" y="-10"/>
      <point x="505" y="75"/>
      <point x="505" y="215" type="curve" smooth="yes"/>
      <point x="505" y="356"/>
      <point x="421" y="440"/>
      <point x="245" y="440" type="curve" smooth="yes"/>
      <point x="205" y="440" type="line"/>
      <point x="205" y="620" type="line"/>
      <point x="469" y="620" type="line"/>
      <point x="469" y="700" type="line"/>
      <point x="65" y="700" type="line"/>
      <point x="65" y="391" type="line"/>
      <point x="104" y="350" type="line"/>
      <point x="230" y="350" type="line" smooth="yes"/>
      <point x="320" y="350"/>
      <point x="365" y="305"/>
      <point x="365" y="215" type="curve" smooth="yes"/>
      <point x="365" y="125"/>
      <point x="320" y="80"/>
      <point x="230" y="80" type="curve" smooth="yes"/>
      <point x="182" y="80"/>
      <point x="147" y="91"/>
      <point x="124" y="102" type="curve"/>
      <point x="111" y="109"/>
      <point x="99" y="116"/>
      <point x="90" y="125" type="curve"/>
      <point x="80" y="125" type="line"/>
      <point x="35" y="45" type="line"/>
      <point x="50" y="34"/>
      <point x="67" y="25"/>
      <point x="87" y="17" type="curve" smooth="yes"/>
      <point x="122" y="2"/>
      <point x="172" y="-10"/>
    </contour>
  </outline>
</glyph>
<glyph name="equal" format="2">
  <advance width="510"/>
  <unicode hex="003D"/>
  <outline>
    <contour>
      <point x="475" y="376" type="line"/>
      <point x="475" y="476" type="line"/>
      <point x="35" y="476" type="line"/>
      <point x="35" y="376" type="line"/>
    </contour>
    <contour>
      <point x="475" y="185" type="line"/>
      <point x="475" y="285" type="line"/>
      <point x="35" y="285" type="line"/>
      <point x="35" y="185" type="line"/>
    </contour>
  </outline>
</glyph>
<glyph name="question" format="2">
  <advance width="490"/>
  <unicode hex="003F"/>
  <outline>
    <contour>
      <point x="260" y="200" type="line"/>
      <point x="260" y="230" type="line" smooth="yes"/>
      <point x="260" y="340"/>
      <point x="455" y="340"/>
      <point x="455" y="520" type="curve" smooth="yes"/>
      <point x="455" y="630"/>
      <point x="376" y="710"/>
      <point x="205" y="710" type="curve" smooth="yes"/>
      <point x="137" y="710"/>
      <point x="87" y="697"/>
      <point x="52" y="682" type="curve" smooth="yes"/>
      <point x="32" y="674"/>
      <point x="15" y="665"/>
      <point x="0" y="655" type="curve"/>
      <point x="45" y="575" type="line"/>
      <point x="55" y="575" type="line"/>
      <point x="64" y="583"/>
      <point x="76" y="590"/>
      <point x="89" y="597" type="curve"/>
      <point x="112" y="608"/>
      <point x="147" y="620"/>
      <point x="195" y="620" type="curve" smooth="yes"/>
      <point x="275" y="620"/>
      <point x="315" y="581"/>
      <point x="315" y="530" type="curve" smooth="yes"/>
      <point x="315" y="399"/>
      <point x="130" y="400"/>
      <point x="130" y="230" type="curve" smooth="yes"/>
      <point x="130" y="200" type="line"/>
    </contour>
    <contour>
      <point x="195" y="-10" type="curve" smooth="yes"/>
      <point x="235" y="-10"/>
      <point x="270" y="25"/>
      <point x="270" y="65" type="curve" smooth="yes"/>
      <point x="270" y="105"/>
      <point x="235" y="140"/>
      <point x="195" y="140" type="curve" smooth="yes"/>
      <point x="155" y="140"/>
      <point x="120" y="105"/>
      <point x="120" y="65" type="curve" smooth="yes"/>
      <point x="120" y="25"/>
      <point x="155" y="-10"/>
    </contour>
  </outline>
</glyph>
<glyph name="D" format="2">
  <advance width="615"/>
  <unicode hex="0044"/>
  <outline>
    <contour>
      <point x="255" y="0" type="line"/>
      <point x="455" y="0"/>
      <point x="565" y="110"/>
      <point x="565" y="350" type="curve" smooth="yes"/>
      <point x="565" y="590"/>
      <point x="455" y="700"/>
      <point x="255" y="700" type="curve" smooth="yes"/>
      <point x="85" y="700" type="line"/>
      <point x="85" y="0" type="line"/>
    </contour>
    <contour>
      <point x="225" y="610" type="line"/>
      <point x="255" y="610" type="line" smooth="yes"/>
      <point x="365" y="610"/>
      <point x="425" y="550"/>
      <point x="425" y="350" type="curve" smooth="yes"/>
      <point x="425" y="150"/>
      <point x="365" y="90"/>
      <point x="255" y="90" type="curve" smooth="yes"/>
      <point x="225" y="90" type="line"/>
    </contour>
  </outline>
</glyph>
<glyph name="E" format="2">
  <advance width="530"/>
  <unicode hex="0045"/>
  <outline>
    <contour>
      <point x="505" y="0" type="line"/>
      <point x="505" y="90" type="line"/>
      <point x="225" y="90" type="line"/>
      <point x="225" y="320" type="line"/>
      <point x="445" y="320" type="line"/>
      <point x="445" y="410" type="line"/>
      <point x="225" y="410" type="line"/>
      <point x="225" y="610" type="line"/>
      <point x="505" y="610" type="line"/>
      <point x="505" y="700" type="line"/>
      <point x="85" y="700" type="line"/>
      <point x="85" y="0" type="line"/>
    </contour>
  </outline>
</glyph>
<glyph name="G" format="2">
  <advance width="590"/>
  <unicode hex="0047"/>
  <outline>
    <contour>
      <point x="330" y="-10" type="curve" smooth="yes"/>
      <point x="393" y="-10"/>
      <point x="478" y="4"/>
      <point x="530" y="45" type="curve"/>
      <point x="530" y="350" type="line"/>
      <point x="490" y="390" type="line"/>
      <point x="285" y="390" type="line"/>
      <point x="285" y="300" type="line"/>
      <point x="390" y="300" type="line"/>
      <point x="390" y="90" type="line"/>
      <point x="374" y="84"/>
      <point x="357" y="80"/>
      <point x="340" y="80" type="curve" smooth="yes"/>
      <point x="250" y="80"/>
      <point x="190" y="139"/>
      <point x="190" y="350" type="curve" smooth="yes"/>
      <point x="190" y="561"/>
      <point x="250" y="620"/>
      <point x="330" y="620" type="curve" smooth="yes"/>
      <point x="372" y="620"/>
      <point x="418" y="603"/>
      <point x="450" y="575" type="curve"/>
      <point x="460" y="575" type="line"/>
      <point x="505" y="655" type="line"/>
      <point x="452" y="693"/>
      <point x="384" y="710"/>
      <point x="320" y="710" type="curve" smooth="yes"/>
      <point x="155" y="710"/>
      <point x="50" y="605"/>
      <point x="50" y="350" type="curve" smooth="yes"/>
      <point x="50" y="95"/>
      <point x="154" y="-10"/>
    </contour>
  </outline>
</glyph>
<glyph name="H" format="2">
  <advance width="660"/>
  <unicode hex="0048"/>
  <outline>
    <contour>
      <point x="225" y="0" type="line"/>
      <point x="225" y="310" type="line"/>
      <point x="435" y="310" type="line"/>
      <point x="435" y="0" type="line"/>
      <point x="575" y="0" type="line"/>
      <point x="575" y="700" type="line"/>
      <point x="435" y="700" type="line"/>
      <point x="435" y="400" type="line"/>
      <point x="225" y="400" type="line"/>
      <point x="225" y="700" type="line"/>
      <point x="85" y="700" type="line"/>
      <point x="85" y="0" type="line"/>
    </contour>
  </outline>
</glyph>
<glyph name="I" format="2">
  <advance width="310"/>
  <unicode hex="0049"/>
  <anchor x="155" y="0" name="bottom"/>
  <anchor x="225" y="0" name="ogonek"/>
  <anchor x="155" y="700" name="top"/>
  <anchor x="20" y="700" name="topleft"/>
  <outline>
    <contour>
      <point x="225" y="0" type="line"/>
      <point x="225" y="700" type="line"/>
      <point x="85" y="700" type="line"/>
      <point x="85" y="0" type="line"/>
    </contour>
  </outline>
</glyph>
<glyph name="J" format="2">
  <advance width="450"/>
  <unicode hex="004A"/>
  <outline>
    <contour>
      <point x="150" y="-10" type="curve" smooth="yes"/>
      <point x="295" y="-10"/>
      <point x="375" y="70"/>
      <point x="375" y="190" type="curve" smooth="yes"/>
      <point x="375" y="700" type="line"/>
      <point x="235" y="700" type="line"/>
      <point x="235" y="190" type="line" smooth="yes"/>
      <point x="235" y="114"/>
      <point x="200" y="80"/>
      <point x="140" y="80" type="curve" smooth="yes"/>
      <point x="117" y="80"/>
      <point x="95" y="89"/>
      <point x="78" y="100" type="curve"/>
      <point x="68" y="106"/>
      <point x="59" y="113"/>
      <point x="50" y="120" type="curve"/>
      <point x="40" y="120" type="line"/>
      <point x="0" y="35" type="line"/>
      <point x="13" y="26"/>
      <point x="28" y="19"/>
      <point x="45" y="12" type="curve" smooth="yes"/>
      <point x="72" y="1"/>
      <point x="110" y="-10"/>
    </contour>
  </outline>
</glyph>
<glyph name="N" format="2">
  <advance width="660"/>
  <unicode hex="004E"/>
  <outline>
    <contour>
      <point x="225" y="0" type="line"/>
      <point x="225" y="420" type="line" smooth="yes"/>
      <point x="225" y="435"/>
      <point x="223" y="451"/>
      <point x="222" y="464" type="curve" smooth="yes"/>
      <point x="220" y="485" type="line"/>
      <point x="224" y="485" type="line"/>
      <point x="225.399" y="481.327"/>
      <point x="230.719" y="467.363"/>
      <point x="232" y="464" type="curve" smooth="yes"/>
      <point x="237" y="451"/>
      <point x="244" y="435"/>
      <point x="250" y="420" type="curve" smooth="yes"/>
      <point x="425" y="0" type="line"/>
      <point x="575" y="0" type="line"/>
      <point x="575" y="700" type="line"/>
      <point x="435" y="700" type="line"/>
      <point x="435" y="280" type="line" smooth="yes"/>
      <point x="435" y="265"/>
      <point x="435" y="248"/>
      <point x="437" y="236" type="curve" smooth="yes"/>
      <point x="440" y="215" type="line"/>
      <point x="436" y="215" type="line"/>
      <point x="434.719" y="218.363"/>
      <point x="429.399" y="232.327"/>
      <point x="428" y="236" type="curve"/>
      <point x="423" y="248"/>
      <point x="416" y="265"/>
      <point x="410" y="280" type="curve" smooth="yes"/>
      <point x="235" y="700" type="line"/>
      <point x="85" y="700" type="line"/>
      <point x="85" y="0" type="line"/>
    </contour>
  </outline>
</glyph>
<glyph name="O" format="2">
  <advance width="630"/>
  <unicode hex="004F"/>
  <outline>
    <contour>
      <point x="315" y="-10" type="curve" smooth="yes"/>
      <point x="475" y="-10"/>
      <point x="580" y="95"/>
      <point x="580" y="350" type="curve" smooth="yes"/>
      <point x="580" y="605"/>
      <point x="475" y="710"/>
      <point x="315" y="710" type="curve" smooth="yes"/>
      <point x="155" y="710"/>
      <point x="50" y="605"/>
      <point x="50" y="350" type="curve" smooth="yes"/>
      <point x="50" y="95"/>
      <point x="155" y="-10"/>
    </contour>
    <contour>
      <point x="315" y="80" type="curve" smooth="yes"/>
      <point x="250" y="80"/>
      <point x="190" y="139"/>
      <point x="190" y="350" type="curve" smooth="yes"/>
      <point x="190" y="561"/>
      <point x="250" y="620"/>
      <point x="315" y="620" type="curve" smooth="yes"/>
      <point x="380" y="620"/>
      <point x="440" y="561"/>
      <point x="440" y="350" type="curve" smooth="yes"/>
      <point x="440" y="139"/>
      <point x="380" y="80"/>
    </contour>
  </outline>
</glyph>
<glyph name="P" format="2">
  <advance width="595"/>
  <unicode hex="0050"/>
  <outline>
    <contour>
      <point x="225" y="0" type="line"/>
      <point x="225" y="230" type="line"/>
      <point x="285" y="230" type="line" smooth="yes"/>
      <point x="476" y="230"/>
      <point x="555" y="309"/>
      <point x="555" y="465" type="curve" smooth="yes"/>
      <point x="555" y="621"/>
      <point x="476" y="700"/>
      <point x="285" y="700" type="curve" smooth="yes"/>
      <point x="85" y="700" type="line"/>
      <point x="85" y="0" type="line"/>
    </contour>
    <contour>
      <point x="225" y="610" type="line"/>
      <point x="285" y="610" type="line" smooth="yes"/>
      <point x="376" y="610"/>
      <point x="415" y="570"/>
      <point x="415" y="465" type="curve" smooth="yes"/>
      <point x="415" y="360"/>
      <point x="376" y="320"/>
      <point x="285" y="320" type="curve" smooth="yes"/>
      <point x="225" y="320" type="line"/>
    </contour>
  </outline>
</glyph>
<glyph name="Q" format="2">
  <advance width="630"/>
  <unicode hex="0051"/>
  <outline>
    <contour>
      <point x="425" y="-165" type="curve" smooth="yes"/>
      <point x="450" y="-165"/>
      <point x="469" y="-160"/>
      <point x="484" y="-155" type="curve" smooth="yes"/>
      <point x="492" y="-152"/>
      <point x="499" y="-149"/>
      <point x="505" y="-145" type="curve"/>
      <point x="479" y="-65" type="line"/>
      <point x="469" y="-65" type="line"/>
      <point x="466" y="-67"/>
      <point x="464" y="-69"/>
      <point x="461" y="-70" type="curve" smooth="yes"/>
      <point x="456" y="-73"/>
      <point x="447" y="-75"/>
      <point x="435" y="-75" type="curve" smooth="yes"/>
      <point x="410" y="-75"/>
      <point x="385" y="-51"/>
      <point x="385" y="0" type="curve"/>
      <point x="505" y="29"/>
      <point x="580" y="135"/>
      <point x="580" y="350" type="curve" smooth="yes"/>
      <point x="580" y="605"/>
      <point x="475" y="710"/>
      <point x="315" y="710" type="curve" smooth="yes"/>
      <point x="155" y="710"/>
      <point x="50" y="605"/>
      <point x="50" y="350" type="curve" smooth="yes"/>
      <point x="50" y="135"/>
      <point x="125" y="29"/>
      <point x="245" y="0" type="curve"/>
      <point x="245" y="-95"/>
      <point x="317" y="-165"/>
    </contour>
    <contour>
      <point x="315" y="80" type="curve" smooth="yes"/>
      <point x="250" y="80"/>
      <point x="190" y="139"/>
      <point x="190" y="350" type="curve" smooth="yes"/>
      <point x="190" y="561"/>
      <point x="250" y="620"/>
      <point x="315" y="620" type="curve" smooth="yes"/>
      <point x="380" y="620"/>
      <point x="440" y="561"/>
      <point x="440" y="350" type="curve" smooth="yes"/>
      <point x="440" y="139"/>
      <point x="380" y="80"/>
    </contour>
  </outline>
</glyph>
<glyph name="V" format="2">
  <advance width="590"/>
  <unicode hex="0056"/>
  <outline>
    <contour>
      <point x="357" y="0" type="line"/>
      <point x="557" y="700" type="line"/>
      <point x="435" y="700" type="line"/>
      <point x="310" y="240" type="line"/>
      <point x="305" y="224"/>
      <point x="303" y="205"/>
      <point x="300" y="190" type="curve"/>
      <point x="297" y="165" type="line"/>
      <point x="293" y="165" type="line"/>
      <point x="289" y="191" type="line"/>
      <point x="286" y="206"/>
      <point x="284" y="224"/>
      <point x="280" y="240" type="curve" smooth="yes"/>
      <point x="155" y="700" type="line"/>
      <point x="27" y="700" type="line"/>
      <point x="227" y="0" type="line"/>
    </contour>
  </outline>
</glyph>
<glyph name="underscore" format="2">
  <advance width="390"/>
  <unicode hex="005F"/>
  <outline>
    <contour>
      <point x="390" y="-140" type="line"/>
      <point x="390" y="-40" type="line"/>
      <point x="0" y="-40" type="line"/>
      <point x="0" y="-140" type="line"/>
    </contour>
  </outline>
</glyph>
<glyph name="b" format="2">
  <advance width="560"/>
  <unicode hex="0062"/>
  <outline>
    <contour>
      <point x="320" y="-10" type="curve" smooth="yes"/>
      <point x="435" y="-10"/>
      <point x="520" y="75"/>
      <point x="520" y="250" type="curve" smooth="yes"/>
      <point x="520" y="425"/>
      <point x="435" y="510"/>
      <point x="310" y="510" type="curve" smooth="yes"/>
      <point x="279" y="510"/>
      <point x="254" y="502"/>
      <point x="237" y="495" type="curve"/>
      <point x="226" y="490"/>
      <point x="217" y="485"/>
      <point x="210" y="480" type="curve"/>
      <point x="210" y="700" type="line"/>
      <point x="110" y="700" type="line"/>
      <point x="70" y="660" type="line"/>
      <point x="70" y="0" type="line"/>
      <point x="170" y="0" type="line"/>
      <point x="180" y="60" type="line"/>
      <point x="185" y="60" type="line"/>
      <point x="194" y="47"/>
      <point x="206" y="35"/>
      <point x="219" y="25" type="curve"/>
      <point x="242" y="6"/>
      <point x="275" y="-10"/>
    </contour>
    <contour>
      <point x="295" y="85" type="curve" smooth="yes"/>
      <point x="267" y="85"/>
      <point x="247" y="100"/>
      <point x="232" y="115" type="curve"/>
      <point x="224" y="124"/>
      <point x="217" y="134"/>
      <point x="210" y="145" type="curve"/>
      <point x="210" y="390" type="line"/>
      <point x="213.257" y="392.327"/>
      <point x="227.198" y="402.284"/>
      <point x="231" y="405" type="curve"/>
      <point x="244" y="412"/>
      <point x="262" y="420"/>
      <point x="285" y="420" type="curve" smooth="yes"/>
      <point x="340" y="420"/>
      <point x="380" y="380"/>
      <point x="380" y="250" type="curve" smooth="yes"/>
      <point x="380" y="125"/>
      <point x="340" y="85"/>
    </contour>
  </outline>
</glyph>
<glyph name="d" format="2">
  <advance width="560"/>
  <unicode hex="0064"/>
  <outline>
    <contour>
      <point x="240" y="-10" type="curve" smooth="yes"/>
      <point x="285" y="-10"/>
      <point x="318" y="6"/>
      <point x="341" y="25" type="curve" smooth="yes"/>
      <point x="354" y="35"/>
      <point x="365" y="47"/>
      <point x="375" y="60" type="curve"/>
      <point x="380" y="60" type="line"/>
      <point x="390" y="0" type="line"/>
      <point x="490" y="0" type="line"/>
      <point x="490" y="700" type="line"/>
      <point x="390" y="700" type="line"/>
      <point x="350" y="660" type="line"/>
      <point x="350" y="480" type="line"/>
      <point x="322" y="495" type="line"/>
      <point x="303" y="502"/>
      <point x="281" y="510"/>
      <point x="250" y="510" type="curve" smooth="yes"/>
      <point x="125" y="510"/>
      <point x="40" y="425"/>
      <point x="40" y="250" type="curve" smooth="yes"/>
      <point x="40" y="75"/>
      <point x="125" y="-10"/>
    </contour>
    <contour>
      <point x="265" y="85" type="curve" smooth="yes"/>
      <point x="220" y="85"/>
      <point x="180" y="125"/>
      <point x="180" y="250" type="curve" smooth="yes"/>
      <point x="180" y="380"/>
      <point x="220" y="420"/>
      <point x="275" y="420" type="curve" smooth="yes"/>
      <point x="298" y="420"/>
      <point x="316" y="412"/>
      <point x="329" y="405" type="curve"/>
      <point x="350" y="390" type="line"/>
      <point x="350" y="145" type="line"/>
      <point x="343" y="134"/>
      <point x="336" y="124"/>
      <point x="328" y="115" type="curve" smooth="yes"/>
      <point x="313" y="100"/>
      <point x="292" y="85"/>
    </contour>
  </outline>
</glyph>
<glyph name="e" format="2">
  <advance width="520"/>
  <unicode hex="0065"/>
  <outline>
    <contour>
      <point x="290" y="-10" type="curve" smooth="yes"/>
      <point x="341" y="-10"/>
      <point x="381" y="2"/>
      <point x="412" y="15" type="curve" smooth="yes"/>
      <point x="429" y="22"/>
      <point x="445" y="31"/>
      <point x="460" y="40" type="curve"/>
      <point x="415" y="120" type="line"/>
      <point x="405" y="120" type="line"/>
      <point x="397" y="113"/>
      <point x="388" y="106"/>
      <point x="377" y="100" type="curve" smooth="yes"/>
      <point x="358" y="89"/>
      <point x="332" y="80"/>
      <point x="300" y="80" type="curve" smooth="yes"/>
      <point x="220" y="80"/>
      <point x="180" y="122"/>
      <point x="180" y="205" type="curve"/>
      <point x="450" y="205" type="line"/>
      <point x="480" y="235" type="line"/>
      <point x="480" y="260" type="line" smooth="yes"/>
      <point x="480" y="425"/>
      <point x="395" y="510"/>
      <point x="260" y="510" type="curve" smooth="yes"/>
      <point x="125" y="510"/>
      <point x="40" y="425"/>
      <point x="40" y="250" type="curve" smooth="yes"/>
      <point x="40" y="77"/>
      <point x="123" y="-10"/>
    </contour>
    <contour>
      <point x="180" y="295" type="line"/>
      <point x="180" y="380"/>
      <point x="220" y="420"/>
      <point x="260" y="420" type="curve" smooth="yes"/>
      <point x="300" y="420"/>
      <point x="340" y="380"/>
      <point x="340" y="295" type="curve"/>
    </contour>
  </outline>
</glyph>
<glyph name="g" format="2">
  <advance width="560"/>
  <unicode hex="0067"/>
  <outline>
    <contour>
      <point x="255" y="-210" type="curve" smooth="yes"/>
      <point x="405" y="-210"/>
      <point x="490" y="-125"/>
      <point x="490" y="-10" type="curve" smooth="yes"/>
      <point x="490" y="500" type="line"/>
      <point x="390" y="500" type="line"/>
      <point x="380" y="440" type="line"/>
      <point x="375" y="440" type="line"/>
      <point x="365" y="453"/>
      <point x="354" y="464"/>
      <point x="341" y="475" type="curve"/>
      <point x="318" y="492"/>
      <point x="285" y="510"/>
      <point x="240" y="510" type="curve" smooth="yes"/>
      <point x="125" y="510"/>
      <point x="40" y="425"/>
      <point x="40" y="250" type="curve" smooth="yes"/>
      <point x="40" y="75"/>
      <point x="125" y="-10"/>
      <point x="250" y="-10" type="curve" smooth="yes"/>
      <point x="281" y="-10"/>
      <point x="303" y="-3"/>
      <point x="322" y="5" type="curve" smooth="yes"/>
      <point x="332" y="9"/>
      <point x="341" y="14"/>
      <point x="350" y="20" type="curve"/>
      <point x="350" y="-10" type="line" smooth="yes"/>
      <point x="350" y="-81"/>
      <point x="310" y="-120"/>
      <point x="245" y="-120" type="curve" smooth="yes"/>
      <point x="210" y="-120"/>
      <point x="183" y="-111"/>
      <point x="164" y="-100" type="curve" smooth="yes"/>
      <point x="153" y="-94"/>
      <point x="143" y="-87"/>
      <point x="135" y="-80" type="curve"/>
      <point x="125" y="-80" type="line"/>
      <point x="80" y="-160" type="line"/>
      <point x="94" y="-169"/>
      <point x="110" y="-178"/>
      <point x="128" y="-185" type="curve" smooth="yes"/>
      <point x="159" y="-198"/>
      <point x="202" y="-210"/>
    </contour>
    <contour>
      <point x="275" y="80" type="curve" smooth="yes"/>
      <point x="220" y="80"/>
      <point x="180" y="120"/>
      <point x="180" y="250" type="curve" smooth="yes"/>
      <point x="180" y="375"/>
      <point x="220" y="415"/>
      <point x="265" y="415" type="curve" smooth="yes"/>
      <point x="292" y="415"/>
      <point x="313" y="400"/>
      <point x="328" y="385" type="curve" smooth="yes"/>
      <point x="336" y="376"/>
      <point x="343" y="366"/>
      <point x="350" y="355" type="curve"/>
      <point x="350" y="110" type="line"/>
      <point x="343" y="104"/>
      <point x="336" y="99"/>
      <point x="329" y="95" type="curve" smooth="yes"/>
      <point x="316" y="87"/>
      <point x="298" y="80"/>
    </contour>
  </outline>
</glyph>
<glyph name="p" format="2">
  <advance width="560"/>
  <unicode hex="0070"/>
  <outline>
    <contour>
      <point x="170" y="-200" type="line"/>
      <point x="210" y="-160" type="line"/>
      <point x="210" y="20" type="line"/>
      <point x="217" y="14"/>
      <point x="226" y="9"/>
      <point x="237" y="5" type="curve"/>
      <point x="254" y="-3"/>
      <point x="279" y="-10"/>
      <point x="310" y="-10" type="curve" smooth="yes"/>
      <point x="435" y="-10"/>
      <point x="520" y="75"/>
      <point x="520" y="250" type="curve" smooth="yes"/>
      <point x="520" y="425"/>
      <point x="435" y="510"/>
      <point x="320" y="510" type="curve" smooth="yes"/>
      <point x="275" y="510"/>
      <point x="242" y="492"/>
      <point x="219" y="475" type="curve"/>
      <point x="206" y="464"/>
      <point x="194" y="453"/>
      <point x="185" y="440" type="curve"/>
      <point x="180" y="440" type="line"/>
      <point x="170" y="500" type="line"/>
      <point x="70" y="500" type="line"/>
      <point x="70" y="-200" type="line"/>
    </contour>
    <contour>
      <point x="285" y="80" type="curve" smooth="yes"/>
      <point x="262" y="80"/>
      <point x="244" y="87"/>
      <point x="231" y="95" type="curve" smooth="yes"/>
      <point x="224" y="99"/>
      <point x="217" y="104"/>
      <point x="210" y="110" type="curve"/>
      <point x="210" y="355" type="line"/>
      <point x="217" y="366"/>
      <point x="224" y="376"/>
      <point x="232" y="385" type="curve" smooth="yes"/>
      <point x="247" y="400"/>
      <point x="267" y="415"/>
      <point x="295" y="415" type="curve" smooth="yes"/>
      <point x="340" y="415"/>
      <point x="380" y="375"/>
      <point x="380" y="250" type="curve" smooth="yes"/>
      <point x="380" y="120"/>
      <point x="340" y="80"/>
    </contour>
  </outline>
</glyph>
<glyph name="t" format="2">
  <advance width="415"/>
  <unicode hex="0074"/>
  <outline>
    <contour>
      <point x="265" y="-10" type="curve" smooth="yes"/>
      <point x="305" y="-10"/>
      <point x="342" y="2"/>
      <point x="370" y="15" type="curve" smooth="yes"/>
      <point x="386" y="22"/>
      <point x="401" y="31"/>
      <point x="415" y="40" type="curve"/>
      <point x="370" y="120" type="line"/>
      <point x="360" y="120" type="line"/>
      <point x="352" y="113"/>
      <point x="343" y="106"/>
      <point x="334" y="100" type="curve" smooth="yes"/>
      <point x="318" y="89"/>
      <point x="298" y="80"/>
      <point x="275" y="80" type="curve" smooth="yes"/>
      <point x="244" y="80"/>
      <point x="220" y="104"/>
      <point x="220" y="160" type="curve" smooth="yes"/>
      <point x="220" y="410" type="line"/>
      <point x="335" y="410" type="line"/>
      <point x="335" y="500" type="line"/>
      <point x="220" y="500" type="line"/>
      <point x="220" y="620" type="line"/>
      <point x="165" y="620" type="line"/>
      <point x="15" y="470" type="line"/>
      <point x="15" y="410" type="line"/>
      <point x="80" y="410" type="line"/>
      <point x="80" y="160" type="line" smooth="yes"/>
      <point x="80" y="60"/>
      <point x="149" y="-10"/>
    </contour>
  </outline>
</glyph>
<glyph name="w" format="2">
  <advance width="721"/>
  <unicode hex="0077"/>
  <outline>
    <contour>
      <point x="267" y="0" type="line"/>
      <point x="347" y="295" type="line" smooth="yes"/>
      <point x="350" y="306"/>
      <point x="352" y="319"/>
      <point x="353" y="330" type="curve" smooth="yes"/>
      <point x="355" y="350" type="line"/>
      <point x="359" y="350" type="line"/>
      <point x="361" y="330" type="line" smooth="yes"/>
      <point x="362" y="319"/>
      <point x="364" y="306"/>
      <point x="367" y="295" type="curve" smooth="yes"/>
      <point x="447" y="0" type="line"/>
      <point x="571" y="0" type="line"/>
      <point x="706" y="500" type="line"/>
      <point x="576" y="500" type="line"/>
      <point x="506" y="225" type="line" smooth="yes"/>
      <point x="503" y="214"/>
      <point x="501" y="201"/>
      <point x="500" y="190" type="curve" smooth="yes"/>
      <point x="499.665" y="186.652"/>
      <point x="498.331" y="173.315"/>
      <point x="498" y="170" type="curve"/>
      <point x="494" y="170" type="line"/>
      <point x="492" y="190" type="line" smooth="yes"/>
      <point x="491" y="201"/>
      <point x="489" y="214"/>
      <point x="486" y="225" type="curve" smooth="yes"/>
      <point x="409" y="500" type="line"/>
      <point x="313" y="500" type="line"/>
      <point x="235" y="225" type="line" smooth="yes"/>
      <point x="232" y="214"/>
      <point x="230" y="201"/>
      <point x="229" y="190" type="curve" smooth="yes"/>
      <point x="228.665" y="186.652"/>
      <point x="227.331" y="173.315"/>
      <point x="227" y="170" type="curve"/>
      <point x="223" y="170" type="line"/>
      <point x="221" y="190" type="line" smooth="yes"/>
      <point x="220" y="201"/>
      <point x="218" y="214"/>
      <point x="215" y="225" type="curve" smooth="yes"/>
      <point x="145" y="500" type="line"/>
      <point x="15" y="500" type="line"/>
      <point x="150" y="0" type="line"/>
    </contour>
  </outline>
</glyph>
<glyph name="x" format="2">
  <advance width="490"/>
  <unicode hex="0078"/>
  <outline>
    <contour>
      <point x="155" y="0" type="line"/>
      <point x="230" y="135" type="line"/>
      <point x="235" y="146"/>
      <point x="239" y="155"/>
      <point x="241" y="162" type="curve" smooth="yes"/>
      <point x="242" y="166"/>
      <point x="243" y="170"/>
      <point x="243" y="175" type="curve"/>
      <point x="247" y="175" type="line"/>
      <point x="247" y="170"/>
      <point x="248" y="166"/>
      <point x="249" y="162" type="curve" smooth="yes"/>
      <point x="252" y="154"/>
      <point x="253" y="146"/>
      <point x="260" y="135" type="curve"/>
      <point x="335" y="0" type="line"/>
      <point x="480" y="0" type="line"/>
      <point x="330" y="255" type="line"/>
      <point x="475" y="500" type="line"/>
      <point x="330" y="500" type="line"/>
      <point x="260" y="370" type="line"/>
      <point x="253" y="359"/>
      <point x="252" y="349"/>
      <point x="249" y="342" type="curve"/>
      <point x="248" y="337"/>
      <point x="247" y="333"/>
      <point x="247" y="330" type="curve"/>
      <point x="243" y="330" type="line"/>
      <point x="243" y="333"/>
      <point x="242" y="337"/>
      <point x="241" y="342" type="curve"/>
      <point x="238" y="349"/>
      <point x="235" y="359"/>
      <point x="230" y="370" type="curve"/>
      <point x="160" y="500" type="line"/>
      <point x="15" y="500" type="line"/>
      <point x="160" y="255" type="line"/>
      <point x="10" y="0" type="line"/>
    </contour>
  </outline>
</glyph>
<glyph name="z" format="2">
  <advance width="470"/>
  <unicode hex="007A"/>
  <outline>
    <contour>
      <point x="435" y="0" type="line"/>
      <point x="435" y="90" type="line"/>
      <point x="175" y="90" type="line"/>
      <point x="430" y="405" type="line"/>
      <point x="430" y="500" type="line"/>
      <point x="35" y="500" type="line"/>
      <point x="35" y="410" type="line"/>
      <point x="280" y="410" type="line"/>
      <point x="35" y="95" type="line"/>
      <point x="35" y="0" type="line"/>
    </contour>
  </outline>
</glyph>
<glyph name="asciitilde" format="2">
  <advance width="498"/>
  <unicode hex="007E"/>
  <outline>
    <contour>
      <point x="344" y="225" type="curve" smooth="yes"/>
      <point x="404" y="225"/>
      <point x="457" y="284"/>
      <point x="478" y="340" type="curve"/>
      <point x="402" y="405" type="line"/>
      <point x="393" y="405" type="line"/>
      <point x="393" y="405"/>
      <point x="365" y="345"/>
      <point x="324" y="345" type="curve" smooth="yes"/>
      <point x="268" y="345"/>
      <point x="245" y="415"/>
      <point x="154" y="415" type="curve" smooth="yes"/>
      <point x="95" y="415"/>
      <point x="39" y="356"/>
      <point x="20" y="300" type="curve"/>
      <point x="96" y="235" type="line"/>
      <point x="105" y="235" type="line"/>
      <point x="105" y="235"/>
      <point x="133" y="295"/>
      <point x="174" y="295" type="curve" smooth="yes"/>
      <point x="230" y="295"/>
      <point x="253" y="225"/>
    </contour>
  </outline>
</glyph>
<glyph name="yen" format="2">
  <advance width="570"/>
  <unicode hex="00A5"/>
  <outline>
    <contour>
      <point x="355" y="0" type="line"/>
      <point x="355" y="170" type="line"/>
      <point x="495" y="170" type="line"/>
      <point x="495" y="255" type="line"/>
      <point x="370" y="255" type="line"/>
      <point x="390" y="300" type="line"/>
      <point x="495" y="300" type="line"/>
      <point x="495" y="385" type="line"/>
      <point x="425" y="385" type="line"/>
      <point x="570" y="700" type="line"/>
      <point x="425" y="700" type="line"/>
      <point x="300" y="405" type="line" smooth="yes"/>
      <point x="295" y="394"/>
      <point x="293" y="384"/>
      <point x="290" y="375" type="curve"/>
      <point x="287" y="360" type="line"/>
      <point x="283" y="360" type="line"/>
      <point x="280" y="375" type="line"/>
      <point x="270" y="405" type="line"/>
      <point x="145" y="700" type="line"/>
      <point x="0" y="700" type="line"/>
      <point x="145" y="385" type="line"/>
      <point x="75" y="385" type="line"/>
      <point x="75" y="300" type="line"/>
      <point x="180" y="300" type="line"/>
      <point x="200" y="255" type="line"/>
      <point x="75" y="255" type="line"/>
      <point x="75" y="170" type="line"/>
      <point x="215" y="170" type="line"/>
      <point x="215" y="0" type="line"/>
    </contour>
  </outline>
</glyph>
<glyph name="section" format="2">
  <advance width="540"/>
  <unicode hex="00A7"/>
  <outline>
    <contour>
      <point x="250" y="-210" type="curve" smooth="yes"/>
      <point x="414" y="-210"/>
      <point x="490" y="-134"/>
      <point x="490" y="-30" type="curve" smooth="yes"/>
      <point x="490" y="22"/>
      <point x="461" y="70"/>
      <point x="415" y="95" type="curve"/>
      <point x="470" y="119"/>
      <point x="500" y="182"/>
      <point x="500" y="240" type="curve" smooth="yes"/>
      <point x="500" y="450"/>
      <point x="190" y="420"/>
      <point x="190" y="540" type="curve" smooth="yes"/>
      <point x="190" y="585"/>
      <point x="224" y="620"/>
      <point x="280" y="620" type="curve" smooth="yes"/>
      <point x="328" y="620"/>
      <point x="372" y="603"/>
      <point x="410" y="575" type="curve"/>
      <point x="420" y="575" type="line"/>
      <point x="465" y="655" type="line"/>
      <point x="407" y="691"/>
      <point x="338" y="710"/>
      <point x="270" y="710" type="curve" smooth="yes"/>
      <point x="125" y="710"/>
      <point x="50" y="634"/>
      <point x="50" y="530" type="curve" smooth="yes"/>
      <point x="50" y="478"/>
      <point x="78" y="429"/>
      <point x="125" y="405" type="curve"/>
      <point x="68" y="378"/>
      <point x="40" y="322"/>
      <point x="40" y="260" type="curve" smooth="yes"/>
      <point x="40" y="49"/>
      <point x="350" y="80"/>
      <point x="350" y="-40" type="curve" smooth="yes"/>
      <point x="350" y="-85"/>
      <point x="316" y="-120"/>
      <point x="240" y="-120" type="curve" smooth="yes"/>
      <point x="197" y="-120"/>
      <point x="148" y="-103"/>
      <point x="115" y="-74" type="curve"/>
      <point x="105" y="-74" type="line"/>
      <point x="60" y="-154" type="line"/>
      <point x="113" y="-190"/>
      <point x="187" y="-210"/>
    </contour>
    <contour>
      <point x="310" y="155" type="curve"/>
      <point x="257" y="170"/>
      <point x="175" y="205"/>
      <point x="175" y="270" type="curve" smooth="yes"/>
      <point x="175" y="310"/>
      <point x="191" y="339"/>
      <point x="230" y="350" type="curve"/>
      <point x="281" y="336"/>
      <point x="365" y="296"/>
      <point x="365" y="235" type="curve" smooth="yes"/>
      <point x="365" y="196"/>
      <point x="348" y="166"/>
    </contour>
  </outline>
</glyph>
<glyph name="dieresis" format="2">
  <advance width="355"/>
  <unicode hex="00A8"/>
  <outline>
    <contour>
      <point x="275" y="570" type="curve" smooth="yes"/>
      <point x="312" y="570"/>
      <point x="345" y="603"/>
      <point x="345" y="640" type="curve" smooth="yes"/>
      <point x="345" y="677"/>
      <point x="312" y="710"/>
      <point x="275" y="710" type="curve" smooth="yes"/>
      <point x="238" y="710"/>
      <point x="205" y="677"/>
      <point x="205" y="640" type="curve" smooth="yes"/>
      <point x="205" y="603"/>
      <point x="238" y="570"/>
    </contour>
    <contour>
      <point x="80" y="570" type="curve" smooth="yes"/>
      <point x="117" y="570"/>
      <point x="150" y="603"/>
      <point x="150" y="640" type="curve" smooth="yes"/>
      <point x="150" y="677"/>
      <point x="117" y="710"/>
      <point x="80" y="710" type="curve" smooth="yes"/>
      <point x="43" y="710"/>
      <point x="10" y="677"/>
      <point x="10" y="640" type="curve" smooth="yes"/>
      <point x="10" y="603"/>
      <point x="43" y="570"/>
    </contour>
  </outline>
</glyph>
<glyph name="guillemetleft" format="2">
  <advance width="520"/>
  <unicode hex="00AB"/>
  <outline>
    <contour>
      <point x="316" y="70" type="line"/>
      <point x="160" y="250" type="line"/>
      <point x="316" y="430" type="line"/>
      <point x="235" y="505" type="line"/>
      <point x="10" y="250" type="line"/>
      <point x="235" y="-5" type="line"/>
    </contour>
    <contour>
      <point x="500" y="115" type="line"/>
      <point x="385" y="250" type="line"/>
      <point x="500" y="385" type="line"/>
      <point x="420" y="460" type="line"/>
      <point x="235" y="250" type="line"/>
      <point x="420" y="40" type="line"/>
    </contour>
  </outline>
</glyph>
<glyph name="logicalnot" format="2">
  <advance width="500"/>
  <unicode hex="00AC"/>
  <outline>
    <contour>
      <point x="465" y="230" type="line"/>
      <point x="465" y="420" type="line"/>
      <point x="35" y="420" type="line"/>
      <point x="35" y="320" type="line"/>
      <point x="355" y="320" type="line"/>
      <point x="355" y="230" type="line"/>
    </contour>
  </outline>
</glyph>
<glyph name="softhyphen" format="2">
  <advance width="460"/>
  <unicode hex="00AD"/>
  <outline>
    <contour>
      <point x="425" y="280" type="line"/>
      <point x="425" y="380" type="line"/>
      <point x="35" y="380" type="line"/>
      <point x="35" y="280" type="line"/>
    </contour>
  </outline>
</glyph>
<glyph name="registered" format="2">
  <advance width="910"/>
  <unicode hex="00AE"/>
  <outline>
    <contour>
      <point x="455" y="-40" type="curve" smooth="yes"/>
      <point x="695" y="-40"/>
      <point x="870" y="134"/>
      <point x="870" y="350" type="curve" smooth="yes"/>
      <point x="870" y="566"/>
      <point x="695" y="740"/>
      <point x="455" y="740" type="curve" smooth="yes"/>
      <point x="215" y="740"/>
      <point x="40" y="566"/>
      <point x="40" y="350" type="curve" smooth="yes"/>
      <point x="40" y="134"/>
      <point x="215" y="-40"/>
    </contour>
    <contour>
      <point x="455" y="50" type="curve" smooth="yes"/>
      <point x="284" y="50"/>
      <point x="160" y="175"/>
      <point x="160" y="350" type="curve" smooth="yes"/>
      <point x="160" y="525"/>
      <point x="284" y="650"/>
      <point x="455" y="650" type="curve" smooth="yes"/>
      <point x="626" y="650"/>
      <point x="750" y="525"/>
      <point x="750" y="350" type="curve" smooth="yes"/>
      <point x="750" y="175"/>
      <point x="626" y="50"/>
    </contour>
    <contour>
      <point x="410" y="135" type="line"/>
      <point x="410" y="275" type="line"/>
      <point x="449" y="275" type="line"/>
      <point x="525" y="135" type="line"/>
      <point x="655" y="135" type="line"/>
      <point x="560" y="295" type="line"/>
      <point x="600" y="310"/>
      <point x="640" y="349"/>
      <point x="640" y="420" type="curve" smooth="yes"/>
      <point x="640" y="505"/>
      <point x="581" y="565"/>
      <point x="450" y="565" type="curve" smooth="yes"/>
      <point x="290" y="565" type="line"/>
      <point x="290" y="135" type="line"/>
    </contour>
    <contour>
      <point x="410" y="485" type="line"/>
      <point x="450" y="485" type="line"/>
      <point x="501" y="485"/>
      <point x="522" y="460"/>
      <point x="522" y="420" type="curve" smooth="yes"/>
      <point x="522" y="380"/>
      <point x="501" y="355"/>
      <point x="450" y="355" type="curve" smooth="yes"/>
      <point x="410" y="355" type="line"/>
    </contour>
  </outline>
</glyph>
<glyph name="degree" format="2">
  <advance width="440"/>
  <unicode hex="00B0"/>
  <outline>
    <contour>
      <point x="220" y="370" type="curve" smooth="yes"/>
      <point x="336" y="370"/>
      <point x="405" y="440"/>
      <point x="405" y="540" type="curve" smooth="yes"/>
      <point x="405" y="640"/>
      <point x="336" y="710"/>
      <point x="220" y="710" type="curve" smooth="yes"/>
      <point x="104" y="710"/>
      <point x="35" y="640"/>
      <point x="35" y="540" type="curve" smooth="yes"/>
      <point x="35" y="440"/>
      <point x="104" y="370"/>
    </contour>
    <contour>
      <point x="220" y="450" type="curve" smooth="yes"/>
      <point x="180" y="450"/>
      <point x="150" y="480"/>
      <point x="150" y="540" type="curve" smooth="yes"/>
      <point x="150" y="600"/>
      <point x="180" y="630"/>
      <point x="220" y="630" type="curve" smooth="yes"/>
      <point x="260" y="630"/>
      <point x="290" y="600"/>
      <point x="290" y="540" type="curve" smooth="yes"/>
      <point x="290" y="480"/>
      <point x="260" y="450"/>
    </contour>
  </outline>
</glyph>
<glyph name="plusminus" format="2">
  <advance width="500"/>
  <unicode hex="00B1"/>
  <outline>
    <contour>
      <point x="465" y="75" type="line"/>
      <point x="465" y="175" type="line"/>
      <point x="300" y="175" type="line"/>
      <point x="300" y="300" type="line"/>
      <point x="465" y="300" type="line"/>
      <point x="465" y="400" type="line"/>
      <point x="300" y="400" type="line"/>
      <point x="300" y="565" type="line"/>
      <point x="200" y="565" type="line"/>
      <point x="200" y="400" type="line"/>
      <point x="35" y="400" type="line"/>
      <point x="35" y="300" type="line"/>
      <point x="200" y="300" type="line"/>
      <point x="200" y="175" type="line"/>
      <point x="35" y="175" type="line"/>
      <point x="35" y="75" type="line"/>
    </contour>
  </outline>
</glyph>
<glyph name="threesuperior" format="2">
  <advance width="361"/>
  <unicode hex="00B3"/>
  <outline>
    <contour>
      <point x="172" y="350" type="curve" smooth="yes"/>
      <point x="272" y="350"/>
      <point x="326" y="405"/>
      <point x="326" y="460" type="curve" smooth="yes"/>
      <point x="326" y="516"/>
      <point x="282" y="560"/>
      <point x="206" y="565" type="curve"/>
      <point x="301" y="615" type="line"/>
      <point x="301" y="700" type="line"/>
      <point x="51" y="700" type="line"/>
      <point x="51" y="620" type="line"/>
      <point x="186" y="620" type="line"/>
      <point x="81" y="560" type="line"/>
      <point x="81" y="500" type="line"/>
      <point x="147" y="500" type="line" smooth="yes"/>
      <point x="182" y="500"/>
      <point x="196" y="485"/>
      <point x="196" y="465" type="curve" smooth="yes"/>
      <point x="196" y="445"/>
      <point x="181" y="430"/>
      <point x="152" y="430" type="curve" smooth="yes"/>
      <point x="133" y="430"/>
      <point x="116" y="437"/>
      <point x="103" y="445" type="curve"/>
      <point x="96" y="449"/>
      <point x="88" y="454"/>
      <point x="81" y="460" type="curve"/>
      <point x="71" y="460" type="line"/>
      <point x="35" y="395" type="line"/>
      <point x="46" y="386"/>
      <point x="59" y="379"/>
      <point x="73" y="372" type="curve"/>
      <point x="97" y="361"/>
      <point x="132" y="350"/>
    </contour>
  </outline>
</glyph>
<glyph name="micro" format="2">
  <advance width="580"/>
  <unicode hex="00B5"/>
  <outline>
    <contour>
      <point x="170" y="-200" type="line"/>
      <point x="210" y="-160" type="line"/>
      <point x="210" y="20" type="line"/>
      <point x="216" y="14"/>
      <point x="223" y="9"/>
      <point x="230" y="5" type="curve"/>
      <point x="242" y="-3"/>
      <point x="260" y="-10"/>
      <point x="280" y="-10" type="curve" smooth="yes"/>
      <point x="320" y="-10"/>
      <point x="348" y="6"/>
      <point x="367" y="25" type="curve"/>
      <point x="378" y="35"/>
      <point x="388" y="47"/>
      <point x="395" y="60" type="curve"/>
      <point x="400" y="60" type="line"/>
      <point x="410" y="0" type="line"/>
      <point x="510" y="0" type="line"/>
      <point x="510" y="500" type="line"/>
      <point x="370" y="500" type="line"/>
      <point x="370" y="145" type="line"/>
      <point x="363" y="134"/>
      <point x="356" y="124"/>
      <point x="348" y="115" type="curve"/>
      <point x="333" y="100"/>
      <point x="312" y="85"/>
      <point x="285" y="85" type="curve" smooth="yes"/>
      <point x="240" y="85"/>
      <point x="210" y="115"/>
      <point x="210" y="180" type="curve" smooth="yes"/>
      <point x="210" y="500" type="line"/>
      <point x="70" y="500" type="line"/>
      <point x="70" y="-200" type="line"/>
    </contour>
  </outline>
</glyph>
<glyph name="cedilla" format="2">
  <advance width="215"/>
  <unicode hex="00B8"/>
  <outline>
    <contour>
      <point x="95" y="-195" type="curve" smooth="yes"/>
      <point x="166" y="-195"/>
      <point x="205" y="-155"/>
      <point x="205" y="-110" type="curve" smooth="yes"/>
      <point x="205" y="-65"/>
      <point x="166" y="-25"/>
      <point x="110" y="-25" type="curve"/>
      <point x="110" y="20" type="line"/>
      <point x="35" y="20" type="line"/>
      <point x="35" y="-80" type="line"/>
      <point x="85" y="-80" type="line" smooth="yes"/>
      <point x="105" y="-80"/>
      <point x="120" y="-90"/>
      <point x="120" y="-110" type="curve" smooth="yes"/>
      <point x="120" y="-130"/>
      <point x="105" y="-140"/>
      <point x="85" y="-140" type="curve" smooth="yes"/>
      <point x="60" y="-140"/>
      <point x="39" y="-125"/>
      <point x="40" y="-125" type="curve"/>
      <point x="31" y="-125" type="line"/>
      <point x="10" y="-175" type="line"/>
      <point x="17" y="-179"/>
      <point x="25" y="-182"/>
      <point x="34" y="-185" type="curve" smooth="yes"/>
      <point x="49" y="-190"/>
      <point x="70" y="-195"/>
    </contour>
  </outline>
</glyph>
<glyph name="ordmasculine" format="2">
  <advance width="420"/>
  <unicode hex="00BA"/>
  <outline>
    <contour>
      <point x="210" y="350" type="curve" smooth="yes"/>
      <point x="310" y="350"/>
      <point x="385" y="426"/>
      <point x="385" y="530" type="curve" smooth="yes"/>
      <point x="385" y="634"/>
      <point x="310" y="710"/>
      <point x="210" y="710" type="curve" smooth="yes"/>
      <point x="110" y="710"/>
      <point x="35" y="634"/>
      <point x="35" y="530" type="curve" smooth="yes"/>
      <point x="35" y="426"/>
      <point x="110" y="350"/>
    </contour>
    <contour>
      <point x="210" y="430" type="curve" smooth="yes"/>
      <point x="179" y="430"/>
      <point x="155" y="455"/>
      <point x="155" y="530" type="curve" smooth="yes"/>
      <point x="155" y="605"/>
      <point x="179" y="630"/>
      <point x="210" y="630" type="curve" smooth="yes"/>
      <point x="239" y="630"/>
      <point x="265" y="605"/>
      <point x="265" y="530" type="curve" smooth="yes"/>
      <point x="265" y="455"/>
      <point x="239" y="430"/>
    </contour>
  </outline>
</glyph>
<glyph name="guillemetright" format="2">
  <advance width="520"/>
  <unicode hex="00BB"/>
  <outline>
    <contour>
      <point x="510" y="250" type="line"/>
      <point x="285" y="505" type="line"/>
      <point x="204" y="430" type="line"/>
      <point x="360" y="250" type="line"/>
      <point x="204" y="70" type="line"/>
      <point x="285" y="-5" type="line"/>
    </contour>
    <contour>
      <point x="285" y="250" type="line"/>
      <point x="100" y="460" type="line"/>
      <point x="20" y="385" type="line"/>
      <point x="135" y="250" type="line"/>
      <point x="20" y="115" type="line"/>
      <point x="100" y="40" type="line"/>
    </contour>
  </outline>
</glyph>
<glyph name="Eth" format="2">
  <advance width="620"/>
  <unicode hex="00D0"/>
  <outline>
    <contour>
      <point x="260" y="0" type="line" smooth="yes"/>
      <point x="460" y="0"/>
      <point x="570" y="110"/>
      <point x="570" y="350" type="curve" smooth="yes"/>
      <point x="570" y="590"/>
      <point x="460" y="700"/>
      <point x="260" y="700" type="curve" smooth="yes"/>
      <point x="90" y="700" type="line"/>
      <point x="90" y="410" type="line"/>
      <point x="35" y="410" type="line"/>
      <point x="35" y="310" type="line"/>
      <point x="90" y="310" type="line"/>
      <point x="90" y="0" type="line"/>
    </contour>
    <contour>
      <point x="230" y="310" type="line"/>
      <point x="325" y="310" type="line"/>
      <point x="325" y="410" type="line"/>
      <point x="230" y="410" type="line"/>
      <point x="230" y="610" type="line"/>
      <point x="260" y="610" type="line" smooth="yes"/>
      <point x="370" y="610"/>
      <point x="430" y="550"/>
      <point x="430" y="350" type="curve" smooth="yes"/>
      <point x="430" y="150"/>
      <point x="370" y="90"/>
      <point x="260" y="90" type="curve" smooth="yes"/>
      <point x="230" y="90" type="line"/>
    </contour>
  </outline>
</glyph>
<glyph name="multiply" format="2">
  <advance width="440"/>
  <unicode hex="00D7"/>
  <outline>
    <contour>
      <point x="220" y="260" type="line"/>
      <point x="335" y="145" type="line"/>
      <point x="405" y="215" type="line"/>
      <point x="290" y="330" type="line"/>
      <point x="405" y="445" type="line"/>
      <point x="335" y="515" type="line"/>
      <point x="220" y="400" type="line"/>
      <point x="105" y="515" type="line"/>
      <point x="35" y="445" type="line"/>
      <point x="150" y="330" type="line"/>
      <point x="35" y="215" type="line"/>
      <point x="105" y="145" type="line"/>
    </contour>
  </outline>
</glyph>
<glyph name="Thorn" format="2">
  <advance width="645"/>
  <unicode hex="00DE"/>
  <outline>
    <contour>
      <point x="225" y="-20" type="line"/>
      <point x="225" y="50" type="line"/>
      <point x="295" y="50" type="line" smooth="yes"/>
      <point x="490" y="50"/>
      <point x="605" y="166"/>
      <point x="605" y="350" type="curve" smooth="yes"/>
      <point x="605" y="534"/>
      <point x="490" y="650"/>
      <point x="295" y="650" type="curve" smooth="yes"/>
      <point x="225" y="650" type="line"/>
      <point x="225" y="720" type="line"/>
      <point x="85" y="720" type="line"/>
      <point x="85" y="-20" type="line"/>
    </contour>
    <contour>
      <point x="225" y="560" type="line"/>
      <point x="295" y="560" type="line" smooth="yes"/>
      <point x="395" y="560"/>
      <point x="465" y="490"/>
      <point x="465" y="350" type="curve" smooth="yes"/>
      <point x="465" y="210"/>
      <point x="395" y="140"/>
      <point x="295" y="140" type="curve" smooth="yes"/>
      <point x="225" y="140" type="line"/>
    </contour>
  </outline>
</glyph>
<glyph name="ae" format="2">
  <advance width="815"/>
  <unicode hex="00E6"/>
  <outline>
    <contour>
      <point x="225" y="-10" type="curve" smooth="yes"/>
      <point x="315" y="-10"/>
      <point x="370" y="29"/>
      <point x="400" y="62" type="curve"/>
      <point x="430" y="29"/>
      <point x="489" y="-10"/>
      <point x="585" y="-10" type="curve" smooth="yes"/>
      <point x="648" y="-10"/>
      <point x="702" y="8"/>
      <point x="755" y="40" type="curve"/>
      <point x="710" y="120" type="line"/>
      <point x="700" y="120" type="line"/>
      <point x="670" y="94"/>
      <point x="635" y="80"/>
      <point x="595" y="80" type="curve" smooth="yes"/>
      <point x="515" y="80"/>
      <point x="475" y="122"/>
      <point x="475" y="205" type="curve"/>
      <point x="745" y="205" type="line"/>
      <point x="775" y="235" type="line"/>
      <point x="775" y="260" type="line" smooth="yes"/>
      <point x="775" y="425"/>
      <point x="690" y="510"/>
      <point x="555" y="510" type="curve" smooth="yes"/>
      <point x="484" y="510"/>
      <point x="441" y="481"/>
      <point x="410" y="450" type="curve"/>
      <point x="379" y="481"/>
      <point x="335" y="510"/>
      <point x="250" y="510" type="curve" smooth="yes"/>
      <point x="190" y="510"/>
      <point x="130" y="492"/>
      <point x="80" y="460" type="curve"/>
      <point x="125" y="380" type="line"/>
      <point x="135" y="380" type="line"/>
      <point x="165" y="406"/>
      <point x="200" y="420"/>
      <point x="240" y="420" type="curve" smooth="yes"/>
      <point x="305" y="420"/>
      <point x="335" y="391"/>
      <point x="335" y="320" type="curve" smooth="yes"/>
      <point x="335" y="305" type="line"/>
      <point x="265" y="305" type="line" smooth="yes"/>
      <point x="105" y="305"/>
      <point x="40" y="241"/>
      <point x="40" y="145" type="curve" smooth="yes"/>
      <point x="40" y="54"/>
      <point x="105" y="-10"/>
    </contour>
    <contour>
      <point x="250" y="85" type="curve" smooth="yes"/>
      <point x="205" y="85"/>
      <point x="180" y="110"/>
      <point x="180" y="145" type="curve" smooth="yes"/>
      <point x="180" y="190"/>
      <point x="205" y="215"/>
      <point x="265" y="215" type="curve" smooth="yes"/>
      <point x="335" y="215" type="line"/>
      <point x="335" y="145" type="line"/>
      <point x="317" y="117"/>
      <point x="286" y="85"/>
    </contour>
    <contour>
      <point x="475" y="295" type="line"/>
      <point x="475" y="380"/>
      <point x="515" y="420"/>
      <point x="555" y="420" type="curve" smooth="yes"/>
      <point x="595" y="420"/>
      <point x="635" y="380"/>
      <point x="635" y="295" type="curve"/>
    </contour>
  </outline>
</glyph>
<glyph name="igrave" format="2">
  <advance width="283"/>
  <unicode hex="00EC"/>
  <outline>
    <contour>
      <point x="213" y="0" type="line"/>
      <point x="213" y="500" type="line"/>
      <point x="73" y="500" type="line"/>
      <point x="73" y="0" type="line"/>
    </contour>
    <contour>
      <point x="195" y="550" type="line"/>
      <point x="150" y="700" type="line"/>
      <point x="15" y="700" type="line"/>
      <point x="115" y="550" type="line"/>
    </contour>
  </outline>
</glyph>
<glyph name="idieresis" format="2">
  <advance width="300"/>
  <unicode hex="00EF"/>
  <outline>
    <contour>
      <point x="220" y="0" type="line"/>
      <point x="220" y="500" type="line"/>
      <point x="80" y="500" type="line"/>
      <point x="80" y="0" type="line"/>
    </contour>
    <contour>
      <point x="50" y="570" type="curve" smooth="yes"/>
      <point x="87" y="570"/>
      <point x="120" y="603"/>
      <point x="120" y="640" type="curve" smooth="yes"/>
      <point x="120" y="677"/>
      <point x="87" y="710"/>
      <point x="50" y="710" type="curve" smooth="yes"/>
      <point x="13" y="710"/>
      <point x="-20" y="677"/>
      <point x="-20" y="640" type="curve" smooth="yes"/>
      <point x="-20" y="603"/>
      <point x="13" y="570"/>
    </contour>
    <contour>
      <point x="245" y="570" type="curve" smooth="yes"/>
      <point x="282" y="570"/>
      <point x="315" y="603"/>
      <point x="315" y="640" type="curve" smooth="yes"/>
      <point x="315" y="677"/>
      <point x="282" y="710"/>
      <point x="245" y="710" type="curve" smooth="yes"/>
      <point x="208" y="710"/>
      <point x="175" y="677"/>
      <point x="175" y="640" type="curve" smooth="yes"/>
      <point x="175" y="603"/>
      <point x="208" y="570"/>
    </contour>
  </outline>
</glyph>
<glyph name="eth" format="2">
  <advance width="545"/>
  <unicode hex="00F0"/>
  <outline>
    <contour>
      <point x="265" y="-10" type="curve" smooth="yes"/>
      <point x="410" y="-10"/>
      <point x="495" y="74"/>
      <point x="495" y="225" type="curve" smooth="yes"/>
      <point x="495" y="325" type="line" smooth="yes"/>
      <point x="495" y="482"/>
      <point x="449" y="575"/>
      <point x="348" y="631" type="curve"/>
      <point x="375" y="695" type="line"/>
      <point x="290" y="730" type="line"/>
      <point x="264" y="667" type="line"/>
      <point x="248" y="672"/>
      <point x="232" y="676"/>
      <point x="215" y="680" type="curve" smooth="yes"/>
      <point x="150" y="695" type="line"/>
      <point x="130" y="610" type="line"/>
      <point x="200" y="596" type="line"/>
      <point x="205.613" y="594.552"/>
      <point x="226.154" y="589.25"/>
      <point x="231" y="588" type="curve"/>
      <point x="205" y="525" type="line"/>
      <point x="290" y="490" type="line"/>
      <point x="314" y="549" type="line"/>
      <point x="358" y="515"/>
      <point x="380" y="465"/>
      <point x="380" y="400" type="curve"/>
      <point x="349" y="435"/>
      <point x="300" y="460"/>
      <point x="240" y="460" type="curve" smooth="yes"/>
      <point x="120" y="460"/>
      <point x="35" y="375"/>
      <point x="35" y="225" type="curve" smooth="yes"/>
      <point x="35" y="74"/>
      <point x="120" y="-10"/>
    </contour>
    <contour>
      <point x="265" y="80" type="curve" smooth="yes"/>
      <point x="214" y="80"/>
      <point x="175" y="120"/>
      <point x="175" y="225" type="curve" smooth="yes"/>
      <point x="175" y="325"/>
      <point x="214" y="365"/>
      <point x="265" y="365" type="curve" smooth="yes"/>
      <point x="316" y="365"/>
      <point x="355" y="325"/>
      <point x="355" y="225" type="curve" smooth="yes"/>
      <point x="355" y="120"/>
      <point x="316" y="80"/>
    </contour>
  </outline>
</glyph>
<glyph name="oslash" format="2">
  <advance width="540"/>
  <unicode hex="00F8"/>
  <outline>
    <contour>
      <point x="270" y="-10" type="curve" smooth="yes"/>
      <point x="415" y="-10"/>
      <point x="500" y="74"/>
      <point x="500" y="250" type="curve" smooth="yes"/>
      <point x="500" y="330"/>
      <point x="482" y="389"/>
      <point x="450" y="432" type="curve"/>
      <point x="499" y="500" type="line"/>
      <point x="405" y="500" type="line"/>
      <point x="392" y="482" type="line"/>
      <point x="359" y="501"/>
      <point x="318" y="510"/>
      <point x="270" y="510" type="curve" smooth="yes"/>
      <point x="125" y="510"/>
      <point x="40" y="426"/>
      <point x="40" y="250" type="curve" smooth="yes"/>
      <point x="40" y="173"/>
      <point x="56" y="112"/>
      <point x="89" y="68" type="curve"/>
      <point x="40" y="0" type="line"/>
      <point x="135" y="0" type="line"/>
      <point x="147" y="17" type="line"/>
      <point x="181" y="-1"/>
      <point x="222" y="-10"/>
    </contour>
    <contour>
      <point x="270" y="80" type="curve" smooth="yes"/>
      <point x="247" y="80"/>
      <point x="228" y="87"/>
      <point x="213" y="107" type="curve"/>
      <point x="357" y="305" type="line"/>
      <point x="359" y="288"/>
      <point x="360" y="269"/>
      <point x="360" y="250" type="curve" smooth="yes"/>
      <point x="360" y="120"/>
      <point x="321" y="80"/>
    </contour>
    <contour>
      <point x="182" y="195" type="line"/>
      <point x="179" y="211"/>
      <point x="180" y="229"/>
      <point x="180" y="250" type="curve" smooth="yes"/>
      <point x="180" y="380"/>
      <point x="219" y="420"/>
      <point x="270" y="420" type="curve" smooth="yes"/>
      <point x="293" y="420"/>
      <point x="312" y="411"/>
      <point x="327" y="393" type="curve"/>
    </contour>
  </outline>
</glyph>
<glyph name="itilde" format="2">
  <advance width="285"/>
  <unicode hex="0129"/>
  <outline>
    <contour>
      <point x="215" y="0" type="line"/>
      <point x="215" y="500" type="line"/>
      <point x="75" y="500" type="line"/>
      <point x="75" y="0" type="line"/>
    </contour>
    <contour>
      <point x="200" y="585" type="curve" smooth="yes"/>
      <point x="251" y="585"/>
      <point x="290" y="634"/>
      <point x="295" y="685" type="curve"/>
      <point x="239" y="715" type="line"/>
      <point x="230" y="715" type="line"/>
      <point x="231" y="714"/>
      <point x="214" y="674"/>
      <point x="190" y="675" type="curve"/>
      <point x="155" y="675"/>
      <point x="135" y="720"/>
      <point x="80" y="720" type="curve" smooth="yes"/>
      <point x="29" y="720"/>
      <point x="-10" y="671"/>
      <point x="-15" y="620" type="curve"/>
      <point x="41" y="590" type="line"/>
      <point x="50" y="590" type="line"/>
      <point x="49" y="589"/>
      <point x="64" y="629"/>
      <point x="90" y="630" type="curve"/>
      <point x="125" y="630"/>
      <point x="145" y="585"/>
    </contour>
  </outline>
</glyph>
<glyph name="Lslash" format="2">
  <advance width="510"/>
  <unicode hex="0141"/>
  <outline>
    <contour>
      <point x="500" y="0" type="line"/>
      <point x="500" y="90" type="line"/>
      <point x="230" y="90" type="line"/>
      <point x="230" y="353" type="line"/>
      <point x="320" y="420" type="line"/>
      <point x="320" y="550" type="line"/>
      <point x="230" y="483" type="line"/>
      <point x="230" y="700" type="line"/>
      <point x="90" y="700" type="line"/>
      <point x="90" y="380" type="line"/>
      <point x="35" y="340" type="line"/>
      <point x="35" y="210" type="line"/>
      <point x="90" y="250" type="line"/>
      <point x="90" y="0" type="line"/>
    </contour>
  </outline>
</glyph>
<glyph name="OE" format="2">
  <advance width="835"/>
  <unicode hex="0152"/>
  <outline>
    <contour>
      <point x="810" y="0" type="line"/>
      <point x="810" y="90" type="line"/>
      <point x="540" y="90" type="line"/>
      <point x="540" y="320" type="line"/>
      <point x="750" y="320" type="line"/>
      <point x="750" y="410" type="line"/>
      <point x="540" y="410" type="line"/>
      <point x="540" y="610" type="line"/>
      <point x="810" y="610" type="line"/>
      <point x="810" y="700" type="line"/>
      <point x="370" y="700" type="line"/>
      <point x="159" y="700"/>
      <point x="50" y="590"/>
      <point x="50" y="350" type="curve" smooth="yes"/>
      <point x="50" y="110"/>
      <point x="159" y="0"/>
      <point x="370" y="0" type="curve" smooth="yes"/>
    </contour>
    <contour>
      <point x="370" y="90" type="line" smooth="yes"/>
      <point x="249" y="90"/>
      <point x="190" y="150"/>
      <point x="190" y="350" type="curve" smooth="yes"/>
      <point x="190" y="550"/>
      <point x="249" y="610"/>
      <point x="370" y="610" type="curve" smooth="yes"/>
      <point x="400" y="610" type="line"/>
      <point x="400" y="90" type="line"/>
    </contour>
  </outline>
</glyph>
<glyph name="oe" format="2">
  <advance width="845"/>
  <unicode hex="0153"/>
  <outline>
    <contour>
      <point x="270" y="-10" type="curve" smooth="yes"/>
      <point x="341" y="-10"/>
      <point x="390" y="15"/>
      <point x="430" y="60" type="curve"/>
      <point x="470" y="15"/>
      <point x="535" y="-10"/>
      <point x="615" y="-10" type="curve" smooth="yes"/>
      <point x="678" y="-10"/>
      <point x="732" y="8"/>
      <point x="785" y="40" type="curve"/>
      <point x="740" y="120" type="line"/>
      <point x="730" y="120" type="line"/>
      <point x="700" y="94"/>
      <point x="665" y="80"/>
      <point x="625" y="80" type="curve" smooth="yes"/>
      <point x="545" y="80"/>
      <point x="505" y="122"/>
      <point x="505" y="205" type="curve"/>
      <point x="775" y="205" type="line"/>
      <point x="805" y="235" type="line"/>
      <point x="805" y="260" type="line" smooth="yes"/>
      <point x="805" y="425"/>
      <point x="720" y="510"/>
      <point x="585" y="510" type="curve" smooth="yes"/>
      <point x="525" y="510"/>
      <point x="470" y="485"/>
      <point x="430" y="440" type="curve"/>
      <point x="390" y="485"/>
      <point x="330" y="510"/>
      <point x="270" y="510" type="curve" smooth="yes"/>
      <point x="125" y="510"/>
      <point x="40" y="426"/>
      <point x="40" y="250" type="curve" smooth="yes"/>
      <point x="40" y="74"/>
      <point x="125" y="-10"/>
    </contour>
    <contour>
      <point x="270" y="80" type="curve" smooth="yes"/>
      <point x="219" y="80"/>
      <point x="180" y="120"/>
      <point x="180" y="250" type="curve" smooth="yes"/>
      <point x="180" y="380"/>
      <point x="219" y="420"/>
      <point x="270" y="420" type="curve" smooth="yes"/>
      <point x="321" y="420"/>
      <point x="360" y="380"/>
      <point x="360" y="250" type="curve" smooth="yes"/>
      <point x="360" y="120"/>
      <point x="321" y="80"/>
    </contour>
    <contour>
      <point x="505" y="295" type="line"/>
      <point x="505" y="380"/>
      <point x="545" y="420"/>
      <point x="585" y="420" type="curve" smooth="yes"/>
      <point x="625" y="420"/>
      <point x="665" y="380"/>
      <point x="665" y="295" type="curve"/>
    </contour>
  </outline>
</glyph>
<glyph name="florin" format="2">
  <advance width="427"/>
  <unicode hex="0192"/>
  <outline>
    <contour>
      <point x="7" y="-200" type="curve" smooth="yes"/>
      <point x="132" y="-200"/>
      <point x="208" y="-130"/>
      <point x="217" y="-30" type="curve" smooth="yes"/>
      <point x="255" y="410" type="line"/>
      <point x="380" y="410" type="line"/>
      <point x="388" y="500" type="line"/>
      <point x="263" y="500" type="line"/>
      <point x="267" y="540" type="line" smooth="yes"/>
      <point x="271" y="591"/>
      <point x="304" y="620"/>
      <point x="339" y="620" type="curve" smooth="yes"/>
      <point x="362" y="620"/>
      <point x="381" y="611"/>
      <point x="396" y="600" type="curve"/>
      <point x="405" y="594"/>
      <point x="413" y="587"/>
      <point x="420" y="580" type="curve"/>
      <point x="430" y="580" type="line"/>
      <point x="482" y="660" type="line"/>
      <point x="469" y="669"/>
      <point x="454" y="678"/>
      <point x="439" y="685" type="curve" smooth="yes"/>
      <point x="412" y="697"/>
      <point x="377" y="710"/>
      <point x="337" y="710" type="curve" smooth="yes"/>
      <point x="212" y="710"/>
      <point x="138" y="640"/>
      <point x="127" y="540" type="curve" smooth="yes"/>
      <point x="123" y="500" type="line"/>
      <point x="68" y="500" type="line"/>
      <point x="60" y="410" type="line"/>
      <point x="115" y="410" type="line"/>
      <point x="77" y="-30" type="line" smooth="yes"/>
      <point x="72" y="-86"/>
      <point x="45" y="-110"/>
      <point x="5" y="-110" type="curve" smooth="yes"/>
      <point x="-10" y="-110"/>
      <point x="-24" y="-105"/>
      <point x="-33" y="-98" type="curve"/>
      <point x="-39" y="-95"/>
      <point x="-44" y="-90"/>
      <point x="-48" y="-85" type="curve"/>
      <point x="-58" y="-85" type="line"/>
      <point x="-100" y="-170" type="line"/>
      <point x="-91" y="-176"/>
      <point x="-80" y="-181"/>
      <point x="-69" y="-185" type="curve"/>
      <point x="-50" y="-193"/>
      <point x="-24" y="-200"/>
    </contour>
  </outline>
</glyph>
<glyph name="breve" format="2">
  <advance width="340"/>
  <unicode hex="02D8"/>
  <outline>
    <contour>
      <point x="170" y="560" type="curve" smooth="yes"/>
      <point x="281" y="560"/>
      <point x="330" y="609"/>
      <point x="330" y="700" type="curve"/>
      <point x="220" y="700" type="line"/>
      <point x="220" y="649"/>
      <point x="201" y="630"/>
      <point x="170" y="630" type="curve" smooth="yes"/>
      <point x="139" y="630"/>
      <point x="120" y="649"/>
      <point x="120" y="700" type="curve"/>
      <point x="10" y="700" type="line"/>
      <point x="10" y="609"/>
      <point x="59" y="560"/>
    </contour>
  </outline>
</glyph>
<glyph name="ogonek" format="2">
  <advance width="210"/>
  <unicode hex="02DB"/>
  <outline>
    <contour>
      <point x="120" y="-185" type="curve" smooth="yes"/>
      <point x="145" y="-185"/>
      <point x="164" y="-180"/>
      <point x="179" y="-173" type="curve" smooth="yes"/>
      <point x="187" y="-170"/>
      <point x="194" y="-165"/>
      <point x="200" y="-160" type="curve"/>
      <point x="200" y="-93" type="line"/>
      <point x="191" y="-93" type="line"/>
      <point x="192" y="-93"/>
      <point x="170" y="-115"/>
      <point x="140" y="-115" type="curve" smooth="yes"/>
      <point x="115" y="-115"/>
      <point x="100" y="-100"/>
      <point x="100" y="-80" type="curve" smooth="yes"/>
      <point x="100" y="-57"/>
      <point x="116" y="-38"/>
      <point x="135" y="-23" type="curve" smooth="yes"/>
      <point x="145" y="-15"/>
      <point x="157" y="-7"/>
      <point x="170" y="0" type="curve"/>
      <point x="66" y="0" type="line"/>
      <point x="55" y="-8"/>
      <point x="46" y="-17"/>
      <point x="38" y="-27" type="curve" smooth="yes"/>
      <point x="23" y="-44"/>
      <point x="10" y="-68"/>
      <point x="10" y="-95" type="curve" smooth="yes"/>
      <point x="10" y="-151"/>
      <point x="44" y="-185"/>
    </contour>
  </outline>
</glyph>
<glyph name="hungarumlaut" format="2">
  <advance width="330"/>
  <unicode hex="02DD"/>
  <outline>
    <contour>
      <point x="230" y="550" type="line"/>
      <point x="320" y="700" type="line"/>
      <point x="210" y="700" type="line"/>
      <point x="165" y="550" type="line"/>
    </contour>
    <contour>
      <point x="75" y="550" type="line"/>
      <point x="165" y="700" type="line"/>
      <point x="55" y="700" type="line"/>
      <point x="10" y="550" type="line"/>
    </contour>
  </outline>
</glyph>
<glyph name="strokeshortcomb" format="2">
  <advance width="450"/>
  <unicode hex="0335"/>
  <anchor x="190" y="335" name="_center"/>
  <outline>
    <contour>
      <point x="350" y="290" type="line"/>
      <point x="350" y="380" type="line"/>
      <point x="30" y="380" type="line"/>
      <point x="30" y="290" type="line"/>
    </contour>
  </outline>
</glyph>
<glyph name="Lje-cy" format="2">
  <advance width="910"/>
  <unicode hex="0409"/>
  <outline>
    <contour>
      <point x="75" y="-10" type="curve" smooth="yes"/>
      <point x="175" y="-10"/>
      <point x="228" y="49"/>
      <point x="235" y="160" type="curve"/>
      <point x="260" y="610" type="line"/>
      <point x="410" y="610" type="line"/>
      <point x="410" y="0" type="line"/>
      <point x="620" y="0" type="line" smooth="yes"/>
      <point x="809" y="0"/>
      <point x="890" y="80"/>
      <point x="890" y="225" type="curve" smooth="yes"/>
      <point x="890" y="370"/>
      <point x="809" y="450"/>
      <point x="620" y="450" type="curve" smooth="yes"/>
      <point x="550" y="450" type="line"/>
      <point x="550" y="700" type="line"/>
      <point x="125" y="700" type="line"/>
      <point x="95" y="160" type="line" smooth="yes"/>
      <point x="92" y="100"/>
      <point x="74" y="80"/>
      <point x="50" y="80" type="curve" smooth="yes"/>
      <point x="46" y="80"/>
      <point x="41" y="81"/>
      <point x="34" y="82" type="curve"/>
      <point x="25" y="85" type="line"/>
      <point x="15" y="85" type="line"/>
      <point x="5" y="5" type="line"/>
      <point x="27" y="-3" type="line"/>
      <point x="40" y="-7"/>
      <point x="56" y="-10"/>
    </contour>
    <contour>
      <point x="550" y="360" type="line"/>
      <point x="620" y="360" type="line"/>
      <point x="711" y="360"/>
      <point x="750" y="321"/>
      <point x="750" y="225" type="curve" smooth="yes"/>
      <point x="750" y="129"/>
      <point x="711" y="90"/>
      <point x="620" y="90" type="curve" smooth="yes"/>
      <point x="550" y="90" type="line"/>
    </contour>
  </outline>
</glyph>
<glyph name="Tshe-cy" format="2">
  <advance width="670"/>
  <unicode hex="040B"/>
  <outline>
    <contour>
      <point x="270" y="0" type="line"/>
      <point x="270" y="355" type="line"/>
      <point x="297" y="362" type="line" smooth="yes"/>
      <point x="314" y="366"/>
      <point x="337" y="370"/>
      <point x="365" y="370" type="curve" smooth="yes"/>
      <point x="442" y="370"/>
      <point x="480" y="332"/>
      <point x="480" y="255" type="curve" smooth="yes"/>
      <point x="480" y="0" type="line"/>
      <point x="620" y="0" type="line"/>
      <point x="620" y="255" type="line" smooth="yes"/>
      <point x="620" y="380"/>
      <point x="541" y="460"/>
      <point x="390" y="460" type="curve" smooth="yes"/>
      <point x="355" y="460"/>
      <point x="325" y="456"/>
      <point x="304" y="452" type="curve"/>
      <point x="292" y="449"/>
      <point x="281" y="447"/>
      <point x="270" y="445" type="curve"/>
      <point x="270" y="610" type="line"/>
      <point x="440" y="610" type="line"/>
      <point x="440" y="700" type="line"/>
      <point x="0" y="700" type="line"/>
      <point x="0" y="610" type="line"/>
      <point x="130" y="610" type="line"/>
      <point x="130" y="0" type="line"/>
    </contour>
  </outline>
</glyph>
<glyph name="Dzhe-cy" format="2">
  <advance width="660"/>
  <unicode hex="040F"/>
  <outline>
    <contour>
      <point x="380" y="-150" type="line"/>
      <point x="395" y="0" type="line"/>
      <point x="575" y="0" type="line"/>
      <point x="575" y="700" type="line"/>
      <point x="435" y="700" type="line"/>
      <point x="435" y="90" type="line"/>
      <point x="225" y="90" type="line"/>
      <point x="225" y="700" type="line"/>
      <point x="85" y="700" type="line"/>
      <point x="85" y="0" type="line"/>
      <point x="265" y="0" type="line"/>
      <point x="280" y="-150" type="line"/>
    </contour>
  </outline>
</glyph>
<glyph name="De-cy" format="2">
  <advance width="655"/>
  <unicode hex="0414"/>
  <outline>
    <contour>
      <point x="115" y="-150" type="line"/>
      <point x="135" y="0" type="line"/>
      <point x="490" y="0" type="line"/>
      <point x="510" y="-150" type="line"/>
      <point x="615" y="-150" type="line"/>
      <point x="615" y="90" type="line"/>
      <point x="550" y="90" type="line"/>
      <point x="550" y="700" type="line"/>
      <point x="135" y="700" type="line"/>
      <point x="110" y="240" type="line" smooth="yes"/>
      <point x="107" y="184"/>
      <point x="93" y="148"/>
      <point x="80" y="124" type="curve"/>
      <point x="73" y="110"/>
      <point x="64" y="99"/>
      <point x="55" y="90" type="curve"/>
      <point x="5" y="90" type="line"/>
      <point x="5" y="-150" type="line"/>
    </contour>
    <contour>
      <point x="190" y="90" type="line"/>
      <point x="199" y="99"/>
      <point x="208" y="110"/>
      <point x="215" y="124" type="curve"/>
      <point x="228" y="148"/>
      <point x="242" y="184"/>
      <point x="245" y="240" type="curve" smooth="yes"/>
      <point x="265" y="610" type="line"/>
      <point x="410" y="610" type="line"/>
      <point x="410" y="90" type="line"/>
    </contour>
  </outline>
</glyph>
<glyph name="Zhe-cy" format="2">
  <advance width="900"/>
  <unicode hex="0416"/>
  <anchor x="674" y="0" name="bottomright"/>
  <anchor x="450" y="700" name="top"/>
  <outline>
    <contour>
      <point x="110" y="-10" type="curve" smooth="yes"/>
      <point x="181" y="-10"/>
      <point x="223" y="34"/>
      <point x="235" y="90" type="curve" smooth="yes"/>
      <point x="270" y="250" type="line"/>
      <point x="281" y="295"/>
      <point x="300" y="315"/>
      <point x="345" y="315" type="curve" smooth="yes"/>
      <point x="380" y="315" type="line"/>
      <point x="380" y="0" type="line"/>
      <point x="520" y="0" type="line"/>
      <point x="520" y="315" type="line"/>
      <point x="555" y="315" type="line" smooth="yes"/>
      <point x="600" y="315"/>
      <point x="619" y="295"/>
      <point x="630" y="250" type="curve"/>
      <point x="665" y="90" type="line" smooth="yes"/>
      <point x="677" y="34"/>
      <point x="719" y="-10"/>
      <point x="790" y="-10" type="curve" smooth="yes"/>
      <point x="820" y="-10"/>
      <point x="844" y="-8"/>
      <point x="875" y="5" type="curve"/>
      <point x="865" y="85" type="line"/>
      <point x="860" y="85" type="line"/>
      <point x="854" y="81"/>
      <point x="850" y="80"/>
      <point x="841" y="80" type="curve" smooth="yes"/>
      <point x="822" y="80"/>
      <point x="810" y="92"/>
      <point x="805" y="115" type="curve" smooth="yes"/>
      <point x="775" y="255" type="line"/>
      <point x="764" y="302"/>
      <point x="737" y="330"/>
      <point x="710" y="346" type="curve" smooth="yes"/>
      <point x="695" y="355"/>
      <point x="678" y="362"/>
      <point x="660" y="365" type="curve"/>
      <point x="676" y="368"/>
      <point x="691" y="374"/>
      <point x="705" y="383" type="curve" smooth="yes"/>
      <point x="729" y="398"/>
      <point x="754" y="423"/>
      <point x="765" y="470" type="curve" smooth="yes"/>
      <point x="790" y="585" type="line" smooth="yes"/>
      <point x="795" y="608"/>
      <point x="806" y="620"/>
      <point x="825" y="620" type="curve" smooth="yes"/>
      <point x="830" y="620"/>
      <point x="835" y="618"/>
      <point x="839" y="617" type="curve" smooth="yes"/>
      <point x="842" y="616"/>
      <point x="844" y="616"/>
      <point x="845" y="615" type="curve"/>
      <point x="850" y="615" type="line"/>
      <point x="860" y="695" type="line"/>
      <point x="836" y="702" type="line" smooth="yes"/>
      <point x="821" y="706"/>
      <point x="800" y="710"/>
      <point x="775" y="710" type="curve" smooth="yes"/>
      <point x="704" y="710"/>
      <point x="662" y="666"/>
      <point x="650" y="610" type="curve" smooth="yes"/>
      <point x="620" y="475" type="line" smooth="yes"/>
      <point x="609" y="424"/>
      <point x="591" y="405"/>
      <point x="540" y="405" type="curve" smooth="yes"/>
      <point x="520" y="405" type="line"/>
      <point x="520" y="700" type="line"/>
      <point x="380" y="700" type="line"/>
      <point x="380" y="405" type="line"/>
      <point x="360" y="405" type="line" smooth="yes"/>
      <point x="309" y="405"/>
      <point x="291" y="424"/>
      <point x="280" y="475" type="curve" smooth="yes"/>
      <point x="250" y="610" type="line" smooth="yes"/>
      <point x="238" y="666"/>
      <point x="196" y="710"/>
      <point x="125" y="710" type="curve" smooth="yes"/>
      <point x="100" y="710"/>
      <point x="79" y="706"/>
      <point x="64" y="702" type="curve" smooth="yes"/>
      <point x="40" y="695" type="line"/>
      <point x="50" y="615" type="line"/>
      <point x="55" y="615" type="line"/>
      <point x="56" y="616"/>
      <point x="58" y="616"/>
      <point x="61" y="617" type="curve" smooth="yes"/>
      <point x="65" y="618"/>
      <point x="70" y="620"/>
      <point x="75" y="620" type="curve" smooth="yes"/>
      <point x="94" y="620"/>
      <point x="105" y="608"/>
      <point x="110" y="585" type="curve" smooth="yes"/>
      <point x="135" y="470" type="line" smooth="yes"/>
      <point x="146" y="423"/>
      <point x="171" y="398"/>
      <point x="195" y="383" type="curve" smooth="yes"/>
      <point x="209" y="374"/>
      <point x="224" y="368"/>
      <point x="240" y="365" type="curve"/>
      <point x="222" y="362"/>
      <point x="205" y="355"/>
      <point x="190" y="346" type="curve" smooth="yes"/>
      <point x="163" y="330"/>
      <point x="136" y="302"/>
      <point x="125" y="255" type="curve"/>
      <point x="95" y="115" type="line" smooth="yes"/>
      <point x="90" y="92"/>
      <point x="78" y="80"/>
      <point x="59" y="80" type="curve" smooth="yes"/>
      <point x="54" y="80"/>
      <point x="50" y="81"/>
      <point x="46" y="82" type="curve"/>
      <point x="40" y="85" type="line"/>
      <point x="35" y="85" type="line"/>
      <point x="25" y="5" type="line"/>
      <point x="47" y="-3" type="line"/>
      <point x="62" y="-7"/>
      <point x="82" y="-10"/>
    </contour>
  </outline>
</glyph>
<glyph name="Ze-cy" format="2">
  <advance width="535"/>
  <unicode hex="0417"/>
  <anchor x="218" y="0" name="bottom"/>
  <anchor x="218" y="700" name="top"/>
  <outline>
    <contour>
      <point x="220" y="-10" type="curve" smooth="yes"/>
      <point x="409" y="-10"/>
      <point x="490" y="70"/>
      <point x="490" y="190" type="curve" smooth="yes"/>
      <point x="490" y="270"/>
      <point x="452" y="315"/>
      <point x="415" y="340" type="curve" smooth="yes"/>
      <point x="393" y="355"/>
      <point x="368" y="365"/>
      <point x="340" y="370" type="curve"/>
      <point x="365" y="375"/>
      <point x="387" y="384"/>
      <point x="407" y="397" type="curve" smooth="yes"/>
      <point x="442" y="420"/>
      <point x="475" y="457"/>
      <point x="475" y="525" type="curve" smooth="yes"/>
      <point x="475" y="630"/>
      <point x="396" y="710"/>
      <point x="225" y="710" type="curve" smooth="yes"/>
      <point x="161" y="710"/>
      <point x="114" y="697"/>
      <point x="81" y="682" type="curve" smooth="yes"/>
      <point x="62" y="674"/>
      <point x="45" y="665"/>
      <point x="30" y="655" type="curve"/>
      <point x="75" y="575" type="line"/>
      <point x="85" y="575" type="line"/>
      <point x="94" y="583"/>
      <point x="105" y="590"/>
      <point x="118" y="597" type="curve" smooth="yes"/>
      <point x="141" y="608"/>
      <point x="172" y="620"/>
      <point x="215" y="620" type="curve" smooth="yes"/>
      <point x="300" y="620"/>
      <point x="335" y="580"/>
      <point x="335" y="515" type="curve" smooth="yes"/>
      <point x="335" y="450"/>
      <point x="296" y="410"/>
      <point x="220" y="410" type="curve" smooth="yes"/>
      <point x="125" y="410" type="line"/>
      <point x="125" y="320" type="line"/>
      <point x="220" y="320" type="line" smooth="yes"/>
      <point x="311" y="320"/>
      <point x="350" y="280"/>
      <point x="350" y="200" type="curve" smooth="yes"/>
      <point x="350" y="120"/>
      <point x="310" y="80"/>
      <point x="210" y="80" type="curve" smooth="yes"/>
      <point x="162" y="80"/>
      <point x="127" y="91"/>
      <point x="104" y="102" type="curve" smooth="yes"/>
      <point x="91" y="109"/>
      <point x="79" y="116"/>
      <point x="70" y="125" type="curve"/>
      <point x="60" y="125" type="line"/>
      <point x="15" y="45" type="line"/>
      <point x="30" y="34"/>
      <point x="47" y="25"/>
      <point x="67" y="17" type="curve" smooth="yes"/>
      <point x="102" y="2"/>
      <point x="152" y="-10"/>
    </contour>
  </outline>
</glyph>
<glyph name="El-cy" format="2">
  <advance width="635"/>
  <unicode hex="041B"/>
  <outline>
    <contour>
      <point x="75" y="-10" type="curve" smooth="yes"/>
      <point x="175" y="-10"/>
      <point x="228" y="49"/>
      <point x="235" y="160" type="curve"/>
      <point x="260" y="610" type="line"/>
      <point x="410" y="610" type="line"/>
      <point x="410" y="0" type="line"/>
      <point x="550" y="0" type="line"/>
      <point x="550" y="700" type="line"/>
      <point x="125" y="700" type="line"/>
      <point x="95" y="160" type="line" smooth="yes"/>
      <point x="92" y="100"/>
      <point x="75" y="80"/>
      <point x="50" y="80" type="curve" smooth="yes"/>
      <point x="46" y="80"/>
      <point x="41" y="81"/>
      <point x="34" y="82" type="curve"/>
      <point x="25" y="85" type="line"/>
      <point x="15" y="85" type="line"/>
      <point x="5" y="5" type="line"/>
      <point x="27" y="-3" type="line"/>
      <point x="40" y="-7"/>
      <point x="56" y="-10"/>
    </contour>
  </outline>
</glyph>
<glyph name="U-cy" format="2">
  <advance width="575"/>
  <unicode hex="0423"/>
  <anchor x="288" y="700" name="top"/>
  <outline>
    <contour>
      <point x="190" y="-15" type="curve" smooth="yes"/>
      <point x="295" y="-15"/>
      <point x="358" y="50"/>
      <point x="385" y="135" type="curve" smooth="yes"/>
      <point x="565" y="700" type="line"/>
      <point x="420" y="700" type="line"/>
      <point x="320" y="365" type="line"/>
      <point x="313" y="346"/>
      <point x="312" y="329"/>
      <point x="309" y="314" type="curve"/>
      <point x="308" y="306"/>
      <point x="307" y="298"/>
      <point x="307" y="290" type="curve"/>
      <point x="303" y="290" type="line"/>
      <point x="302" y="298"/>
      <point x="301" y="306"/>
      <point x="299" y="314" type="curve"/>
      <point x="296" y="329"/>
      <point x="292" y="346"/>
      <point x="285" y="365" type="curve" smooth="yes"/>
      <point x="155" y="700" type="line"/>
      <point x="10" y="700" type="line"/>
      <point x="224" y="185" type="line"/>
      <point x="265" y="185" type="line"/>
      <point x="250" y="135" type="line" smooth="yes"/>
      <point x="239" y="100"/>
      <point x="215" y="75"/>
      <point x="180" y="75" type="curve" smooth="yes"/>
      <point x="161" y="75"/>
      <point x="148" y="80"/>
      <point x="137" y="87" type="curve"/>
      <point x="130" y="90"/>
      <point x="125" y="95"/>
      <point x="120" y="100" type="curve"/>
      <point x="110" y="100" type="line"/>
      <point x="75" y="15" type="line"/>
      <point x="85" y="9"/>
      <point x="96" y="4"/>
      <point x="108" y="0" type="curve"/>
      <point x="129" y="-8"/>
      <point x="157" y="-15"/>
    </contour>
  </outline>
</glyph>
<glyph name="Ef-cy" format="2">
  <advance width="790"/>
  <unicode hex="0424"/>
  <outline>
    <contour>
      <point x="465" y="-30" type="line"/>
      <point x="465" y="40" type="line"/>
      <point x="645" y="51"/>
      <point x="755" y="160"/>
      <point x="755" y="350" type="curve" smooth="yes"/>
      <point x="755" y="540"/>
      <point x="645" y="649"/>
      <point x="465" y="660" type="curve"/>
      <point x="465" y="730" type="line"/>
      <point x="325" y="730" type="line"/>
      <point x="325" y="660" type="line"/>
      <point x="145" y="649"/>
      <point x="35" y="540"/>
      <point x="35" y="350" type="curve" smooth="yes"/>
      <point x="35" y="160"/>
      <point x="145" y="51"/>
      <point x="325" y="40" type="curve"/>
      <point x="325" y="-30" type="line"/>
    </contour>
    <contour>
      <point x="325" y="130" type="line"/>
      <point x="235" y="141"/>
      <point x="175" y="200"/>
      <point x="175" y="350" type="curve" smooth="yes"/>
      <point x="175" y="500"/>
      <point x="235" y="559"/>
      <point x="325" y="570" type="curve"/>
    </contour>
    <contour>
      <point x="465" y="570" type="line"/>
      <point x="555" y="559"/>
      <point x="615" y="500"/>
      <point x="615" y="350" type="curve" smooth="yes"/>
      <point x="615" y="200"/>
      <point x="555" y="141"/>
      <point x="465" y="130" type="curve"/>
    </contour>
  </outline>
</glyph>
<glyph name="Che-cy" format="2">
  <advance width="630"/>
  <unicode hex="0427"/>
  <anchor x="405" y="0" name="bottomright"/>
  <anchor x="305" y="290" name="center"/>
  <anchor x="295" y="700" name="top"/>
  <outline>
    <contour>
      <point x="545" y="0" type="line"/>
      <point x="545" y="700" type="line"/>
      <point x="405" y="700" type="line"/>
      <point x="405" y="345" type="line"/>
      <point x="397" y="342"/>
      <point x="388" y="340"/>
      <point x="378" y="337" type="curve" smooth="yes"/>
      <point x="361" y="333"/>
      <point x="337" y="330"/>
      <point x="310" y="330" type="curve" smooth="yes"/>
      <point x="233" y="330"/>
      <point x="195" y="368"/>
      <point x="195" y="445" type="curve" smooth="yes"/>
      <point x="195" y="700" type="line"/>
      <point x="55" y="700" type="line"/>
      <point x="55" y="445" type="line" smooth="yes"/>
      <point x="55" y="320"/>
      <point x="134" y="240"/>
      <point x="285" y="240" type="curve" smooth="yes"/>
      <point x="320" y="240"/>
      <point x="350" y="243"/>
      <point x="371" y="247" type="curve"/>
      <point x="405" y="255" type="line"/>
      <point x="405" y="0" type="line"/>
    </contour>
  </outline>
</glyph>
<glyph name="Sha-cy" format="2">
  <advance width="950"/>
  <unicode hex="0428"/>
  <outline>
    <contour>
      <point x="865" y="0" type="line"/>
      <point x="865" y="700" type="line"/>
      <point x="725" y="700" type="line"/>
      <point x="725" y="90" type="line"/>
      <point x="545" y="90" type="line"/>
      <point x="545" y="700" type="line"/>
      <point x="405" y="700" type="line"/>
      <point x="405" y="90" type="line"/>
      <point x="225" y="90" type="line"/>
      <point x="225" y="700" type="line"/>
      <point x="85" y="700" type="line"/>
      <point x="85" y="0" type="line"/>
    </contour>
  </outline>
</glyph>
<glyph name="Shcha-cy" format="2">
  <advance width="970"/>
  <unicode hex="0429"/>
  <outline>
    <contour>
      <point x="930" y="-150" type="line"/>
      <point x="930" y="90" type="line"/>
      <point x="865" y="90" type="line"/>
      <point x="865" y="700" type="line"/>
      <point x="725" y="700" type="line"/>
      <point x="725" y="90" type="line"/>
      <point x="545" y="90" type="line"/>
      <point x="545" y="700" type="line"/>
      <point x="405" y="700" type="line"/>
      <point x="405" y="90" type="line"/>
      <point x="225" y="90" type="line"/>
      <point x="225" y="700" type="line"/>
      <point x="85" y="700" type="line"/>
      <point x="85" y="0" type="line"/>
      <point x="805" y="0" type="line"/>
      <point x="825" y="-150" type="line"/>
    </contour>
  </outline>
</glyph>
<glyph name="Yeru-cy" format="2">
  <advance width="855"/>
  <unicode hex="042B"/>
  <anchor x="428" y="700" name="top"/>
  <outline>
    <contour>
      <point x="280" y="0" type="line" smooth="yes"/>
      <point x="469" y="0"/>
      <point x="550" y="80"/>
      <point x="550" y="225" type="curve" smooth="yes"/>
      <point x="550" y="370"/>
      <point x="469" y="450"/>
      <point x="280" y="450" type="curve" smooth="yes"/>
      <point x="225" y="450" type="line"/>
      <point x="225" y="700" type="line"/>
      <point x="85" y="700" type="line"/>
      <point x="85" y="0" type="line"/>
    </contour>
    <contour>
      <point x="225" y="360" type="line"/>
      <point x="280" y="360" type="line"/>
      <point x="371" y="360"/>
      <point x="410" y="321"/>
      <point x="410" y="225" type="curve" smooth="yes"/>
      <point x="410" y="129"/>
      <point x="371" y="90"/>
      <point x="280" y="90" type="curve" smooth="yes"/>
      <point x="225" y="90" type="line"/>
    </contour>
    <contour>
      <point x="770" y="0" type="line"/>
      <point x="770" y="700" type="line"/>
      <point x="630" y="700" type="line"/>
      <point x="630" y="0" type="line"/>
    </contour>
  </outline>
</glyph>
<glyph name="Ia-cy" format="2">
  <advance width="610"/>
  <unicode hex="042F"/>
  <outline>
    <contour>
      <point x="115" y="-10" type="curve" smooth="yes"/>
      <point x="175" y="-10"/>
      <point x="221" y="34"/>
      <point x="236" y="90" type="curve" smooth="yes"/>
      <point x="265" y="195" type="line" smooth="yes"/>
      <point x="277" y="240"/>
      <point x="296" y="260"/>
      <point x="340" y="260" type="curve" smooth="yes"/>
      <point x="385" y="260" type="line"/>
      <point x="385" y="0" type="line"/>
      <point x="525" y="0" type="line"/>
      <point x="525" y="700" type="line"/>
      <point x="329" y="700" type="line" smooth="yes"/>
      <point x="140" y="700"/>
      <point x="59" y="620"/>
      <point x="59" y="479" type="curve" smooth="yes"/>
      <point x="59" y="379"/>
      <point x="114" y="312"/>
      <point x="210" y="295" type="curve"/>
      <point x="166" y="281"/>
      <point x="133" y="244"/>
      <point x="120" y="200" type="curve" smooth="yes"/>
      <point x="95" y="115" type="line" smooth="yes"/>
      <point x="88" y="90"/>
      <point x="80" y="80"/>
      <point x="59" y="80" type="curve" smooth="yes"/>
      <point x="52" y="80"/>
      <point x="47" y="82"/>
      <point x="40" y="85" type="curve"/>
      <point x="35" y="85" type="line"/>
      <point x="25" y="5" type="line"/>
      <point x="51" y="-8"/>
      <point x="86" y="-10"/>
    </contour>
    <contour>
      <point x="329" y="350" type="line" smooth="yes"/>
      <point x="238" y="350"/>
      <point x="199" y="389"/>
      <point x="199" y="480" type="curve" smooth="yes"/>
      <point x="199" y="571"/>
      <point x="238" y="610"/>
      <point x="329" y="610" type="curve" smooth="yes"/>
      <point x="385" y="610" type="line"/>
      <point x="385" y="350" type="line"/>
    </contour>
  </outline>
</glyph>
<glyph name="be-cy" format="2">
  <advance width="555"/>
  <unicode hex="0431"/>
  <outline>
    <contour>
      <point x="280" y="-10" type="curve" smooth="yes"/>
      <point x="425" y="-10"/>
      <point x="510" y="74"/>
      <point x="510" y="230" type="curve" smooth="yes"/>
      <point x="510" y="386"/>
      <point x="425" y="470"/>
      <point x="305" y="470" type="curve" smooth="yes"/>
      <point x="239" y="470"/>
      <point x="191" y="442"/>
      <point x="160" y="385" type="curve"/>
      <point x="160" y="511"/>
      <point x="210" y="561"/>
      <point x="350" y="585" type="curve" smooth="yes"/>
      <point x="500" y="610" type="line"/>
      <point x="480" y="715" type="line"/>
      <point x="330" y="690" type="line" smooth="yes"/>
      <point x="140" y="658"/>
      <point x="50" y="570"/>
      <point x="50" y="325" type="curve" smooth="yes"/>
      <point x="50" y="230" type="line" smooth="yes"/>
      <point x="50" y="74"/>
      <point x="135" y="-10"/>
    </contour>
    <contour>
      <point x="280" y="80" type="curve" smooth="yes"/>
      <point x="229" y="80"/>
      <point x="190" y="121"/>
      <point x="190" y="230" type="curve" smooth="yes"/>
      <point x="190" y="335"/>
      <point x="229" y="375"/>
      <point x="280" y="375" type="curve" smooth="yes"/>
      <point x="331" y="375"/>
      <point x="370" y="335"/>
      <point x="370" y="230" type="curve" smooth="yes"/>
      <point x="370" y="121"/>
      <point x="331" y="80"/>
    </contour>
  </outline>
</glyph>
<glyph name="ge-cy" format="2">
  <advance width="430"/>
  <unicode hex="0433"/>
  <anchor x="70" y="0" name="bottomright"/>
  <anchor x="167" y="250" name="center"/>
  <anchor x="275" y="500" name="top"/>
  <outline>
    <contour>
      <point x="210" y="0" type="line"/>
      <point x="210" y="410" type="line"/>
      <point x="420" y="410" type="line"/>
      <point x="420" y="500" type="line"/>
      <point x="70" y="500" type="line"/>
      <point x="70" y="0" type="line"/>
    </contour>
  </outline>
</glyph>
<glyph name="ii-cy" format="2">
  <advance width="580"/>
  <unicode hex="0438"/>
  <anchor x="370" y="0" name="bottomright"/>
  <anchor x="290" y="500" name="top"/>
  <outline>
    <contour>
      <point x="205" y="0" type="line"/>
      <point x="345" y="245" type="line" smooth="yes"/>
      <point x="353" y="260"/>
      <point x="360" y="275"/>
      <point x="364" y="286" type="curve" smooth="yes"/>
      <point x="367" y="293"/>
      <point x="369" y="299"/>
      <point x="370" y="305" type="curve"/>
      <point x="374" y="305" type="line"/>
      <point x="372" y="286" type="line" smooth="yes"/>
      <point x="371" y="275"/>
      <point x="370" y="260"/>
      <point x="370" y="245" type="curve" smooth="yes"/>
      <point x="370" y="0" type="line"/>
      <point x="510" y="0" type="line"/>
      <point x="510" y="500" type="line"/>
      <point x="375" y="500" type="line"/>
      <point x="235" y="255" type="line" smooth="yes"/>
      <point x="226" y="240"/>
      <point x="220" y="225"/>
      <point x="216" y="214" type="curve" smooth="yes"/>
      <point x="213" y="207"/>
      <point x="211" y="201"/>
      <point x="210" y="195" type="curve"/>
      <point x="206" y="195" type="line"/>
      <point x="208" y="214" type="line" smooth="yes"/>
      <point x="209" y="225"/>
      <point x="210" y="240"/>
      <point x="210" y="255" type="curve" smooth="yes"/>
      <point x="210" y="500" type="line"/>
      <point x="70" y="500" type="line"/>
      <point x="70" y="0" type="line"/>
    </contour>
  </outline>
</glyph>
<glyph name="ka-cy" format="2">
  <advance width="540"/>
  <unicode hex="043A"/>
  <anchor x="340" y="0" name="bottomright"/>
  <anchor x="260" y="250" name="center"/>
  <anchor x="270" y="500" name="top"/>
  <outline>
    <contour>
      <point x="440" y="-10" type="curve" smooth="yes"/>
      <point x="463" y="-10"/>
      <point x="482" y="-7"/>
      <point x="497" y="-3" type="curve"/>
      <point x="505" y="0"/>
      <point x="513" y="2"/>
      <point x="520" y="5" type="curve"/>
      <point x="505" y="85" type="line"/>
      <point x="500" y="85" type="line"/>
      <point x="494" y="82" type="line"/>
      <point x="489" y="81"/>
      <point x="484" y="80"/>
      <point x="480" y="80" type="curve" smooth="yes"/>
      <point x="469" y="80"/>
      <point x="459" y="90"/>
      <point x="455" y="105" type="curve" smooth="yes"/>
      <point x="435" y="185" type="line" smooth="yes"/>
      <point x="427" y="217"/>
      <point x="402" y="236"/>
      <point x="379" y="247" type="curve" smooth="yes"/>
      <point x="366" y="254"/>
      <point x="351" y="258"/>
      <point x="335" y="260" type="curve"/>
      <point x="349" y="263"/>
      <point x="362" y="267"/>
      <point x="374" y="272" type="curve" smooth="yes"/>
      <point x="394" y="281"/>
      <point x="417" y="297"/>
      <point x="425" y="325" type="curve" smooth="yes"/>
      <point x="445" y="395" type="line" smooth="yes"/>
      <point x="449" y="410"/>
      <point x="459" y="420"/>
      <point x="470" y="420" type="curve" smooth="yes"/>
      <point x="475" y="420"/>
      <point x="480" y="418"/>
      <point x="484" y="417" type="curve" smooth="yes"/>
      <point x="487" y="416"/>
      <point x="489" y="416"/>
      <point x="490" y="415" type="curve"/>
      <point x="495" y="415" type="line"/>
      <point x="510" y="495" type="line"/>
      <point x="503" y="497"/>
      <point x="495" y="499"/>
      <point x="487" y="502" type="curve"/>
      <point x="472" y="506"/>
      <point x="453" y="510"/>
      <point x="430" y="510" type="curve" smooth="yes"/>
      <point x="359" y="510"/>
      <point x="327" y="475"/>
      <point x="315" y="430" type="curve" smooth="yes"/>
      <point x="290" y="340" type="line" smooth="yes"/>
      <point x="283" y="315"/>
      <point x="271" y="300"/>
      <point x="240" y="300" type="curve" smooth="yes"/>
      <point x="210" y="300" type="line"/>
      <point x="210" y="500" type="line"/>
      <point x="70" y="500" type="line"/>
      <point x="70" y="0" type="line"/>
      <point x="210" y="0" type="line"/>
      <point x="210" y="210" type="line"/>
      <point x="250" y="210" type="line" smooth="yes"/>
      <point x="281" y="210"/>
      <point x="293" y="195"/>
      <point x="300" y="170" type="curve"/>
      <point x="325" y="70" type="line" smooth="yes"/>
      <point x="336" y="25"/>
      <point x="369" y="-10"/>
    </contour>
  </outline>
</glyph>
<glyph name="el-cy" format="2">
  <advance width="565"/>
  <unicode hex="043B"/>
  <outline>
    <contour>
      <point x="75" y="-10" type="curve" smooth="yes"/>
      <point x="166" y="-10"/>
      <point x="218" y="44"/>
      <point x="225" y="160" type="curve" smooth="yes"/>
      <point x="240" y="410" type="line"/>
      <point x="355" y="410" type="line"/>
      <point x="355" y="0" type="line"/>
      <point x="495" y="0" type="line"/>
      <point x="495" y="500" type="line"/>
      <point x="110" y="500" type="line"/>
      <point x="90" y="160" type="line" smooth="yes"/>
      <point x="86" y="100"/>
      <point x="65" y="80"/>
      <point x="45" y="80" type="curve" smooth="yes"/>
      <point x="41" y="80"/>
      <point x="36" y="81"/>
      <point x="31" y="82" type="curve"/>
      <point x="25" y="85" type="line"/>
      <point x="15" y="85" type="line"/>
      <point x="5" y="5" type="line"/>
      <point x="27" y="-3" type="line"/>
      <point x="40" y="-7"/>
      <point x="56" y="-10"/>
    </contour>
  </outline>
</glyph>
<glyph name="en-cy" format="2">
  <advance width="580"/>
  <unicode hex="043D"/>
  <anchor x="370" y="0" name="bottomright"/>
  <outline>
    <contour>
      <point x="210" y="0" type="line"/>
      <point x="210" y="210" type="line"/>
      <point x="370" y="210" type="line"/>
      <point x="370" y="0" type="line"/>
      <point x="510" y="0" type="line"/>
      <point x="510" y="500" type="line"/>
      <point x="370" y="500" type="line"/>
      <point x="370" y="300" type="line"/>
      <point x="210" y="300" type="line"/>
      <point x="210" y="500" type="line"/>
      <point x="70" y="500" type="line"/>
      <point x="70" y="0" type="line"/>
    </contour>
  </outline>
</glyph>
<glyph name="pe-cy" format="2">
  <advance width="580"/>
  <unicode hex="043F"/>
  <anchor x="370" y="0" name="bottomright"/>
  <outline>
    <contour>
      <point x="210" y="0" type="line"/>
      <point x="210" y="410" type="line"/>
      <point x="370" y="410" type="line"/>
      <point x="370" y="0" type="line"/>
      <point x="510" y="0" type="line"/>
      <point x="510" y="500" type="line"/>
      <point x="70" y="500" type="line"/>
      <point x="70" y="0" type="line"/>
    </contour>
  </outline>
</glyph>
<glyph name="te-cy" format="2">
  <advance width="450"/>
  <unicode hex="0442"/>
  <outline>
    <contour>
      <point x="295" y="0" type="line"/>
      <point x="295" y="410" type="line"/>
      <point x="440" y="410" type="line"/>
      <point x="440" y="500" type="line"/>
      <point x="10" y="500" type="line"/>
      <point x="10" y="410" type="line"/>
      <point x="155" y="410" type="line"/>
      <point x="155" y="0" type="line"/>
    </contour>
  </outline>
</glyph>
<glyph name="ef-cy" format="2">
  <advance width="710"/>
  <unicode hex="0444"/>
  <outline>
    <contour>
      <point x="425" y="-200" type="line"/>
      <point x="425" y="-10" type="line"/>
      <point x="586" y="-5"/>
      <point x="670" y="79"/>
      <point x="670" y="250" type="curve" smooth="yes"/>
      <point x="670" y="421"/>
      <point x="586" y="505"/>
      <point x="425" y="510" type="curve"/>
      <point x="425" y="700" type="line"/>
      <point x="325" y="700" type="line"/>
      <point x="285" y="660" type="line"/>
      <point x="285" y="510" type="line"/>
      <point x="124" y="505"/>
      <point x="40" y="421"/>
      <point x="40" y="250" type="curve" smooth="yes"/>
      <point x="40" y="79"/>
      <point x="124" y="-5"/>
      <point x="285" y="-10" type="curve"/>
      <point x="285" y="-200" type="line"/>
    </contour>
    <contour>
      <point x="285" y="80" type="line"/>
      <point x="221" y="85"/>
      <point x="180" y="125"/>
      <point x="180" y="250" type="curve" smooth="yes"/>
      <point x="180" y="375"/>
      <point x="221" y="415"/>
      <point x="285" y="420" type="curve"/>
    </contour>
    <contour>
      <point x="425" y="420" type="line"/>
      <point x="489" y="415"/>
      <point x="530" y="375"/>
      <point x="530" y="250" type="curve" smooth="yes"/>
      <point x="530" y="125"/>
      <point x="489" y="85"/>
      <point x="425" y="80" type="curve"/>
    </contour>
  </outline>
</glyph>
<glyph name="tse-cy" format="2">
  <advance width="600"/>
  <unicode hex="0446"/>
  <outline>
    <contour>
      <point x="565" y="-140" type="line"/>
      <point x="565" y="90" type="line"/>
      <point x="500" y="90" type="line"/>
      <point x="500" y="500" type="line"/>
      <point x="360" y="500" type="line"/>
      <point x="360" y="90" type="line"/>
      <point x="210" y="90" type="line"/>
      <point x="210" y="500" type="line"/>
      <point x="70" y="500" type="line"/>
      <point x="70" y="0" type="line"/>
      <point x="440" y="0" type="line"/>
      <point x="460" y="-140" type="line"/>
    </contour>
  </outline>
</glyph>
<glyph name="shcha-cy" format="2">
  <advance width="850"/>
  <unicode hex="0449"/>
  <outline>
    <contour>
      <point x="815" y="-140" type="line"/>
      <point x="815" y="90" type="line"/>
      <point x="750" y="90" type="line"/>
      <point x="750" y="500" type="line"/>
      <point x="610" y="500" type="line"/>
      <point x="610" y="90" type="line"/>
      <point x="480" y="90" type="line"/>
      <point x="480" y="500" type="line"/>
      <point x="340" y="500" type="line"/>
      <point x="340" y="90" type="line"/>
      <point x="210" y="90" type="line"/>
      <point x="210" y="500" type="line"/>
      <point x="70" y="500" type="line"/>
      <point x="70" y="0" type="line"/>
      <point x="690" y="0" type="line"/>
      <point x="710" y="-140" type="line"/>
    </contour>
  </outline>
</glyph>
<glyph name="hardsign-cy" format="2">
  <advance width="580"/>
  <unicode hex="044A"/>
  <outline>
    <contour>
      <point x="340" y="0" type="line" smooth="yes"/>
      <point x="458" y="0"/>
      <point x="560" y="32"/>
      <point x="560" y="170" type="curve" smooth="yes"/>
      <point x="560" y="280"/>
      <point x="500" y="340"/>
      <point x="335" y="340" type="curve" smooth="yes"/>
      <point x="270" y="340" type="line"/>
      <point x="270" y="500" type="line"/>
      <point x="10" y="500" type="line"/>
      <point x="10" y="410" type="line"/>
      <point x="130" y="410" type="line"/>
      <point x="130" y="0" type="line"/>
    </contour>
    <contour>
      <point x="270" y="250" type="line"/>
      <point x="335" y="250" type="line" smooth="yes"/>
      <point x="391" y="250"/>
      <point x="420" y="221"/>
      <point x="420" y="170" type="curve" smooth="yes"/>
      <point x="420" y="119"/>
      <point x="391" y="90"/>
      <point x="335" y="90" type="curve" smooth="yes"/>
      <point x="270" y="90" type="line"/>
    </contour>
  </outline>
</glyph>
<glyph name="yeru-cy" format="2">
  <advance width="775"/>
  <unicode hex="044B"/>
  <anchor x="388" y="500" name="top"/>
  <outline>
    <contour>
      <point x="265" y="0" type="line" smooth="yes"/>
      <point x="430" y="0"/>
      <point x="490" y="60"/>
      <point x="490" y="170" type="curve" smooth="yes"/>
      <point x="490" y="280"/>
      <point x="430" y="340"/>
      <point x="265" y="340" type="curve" smooth="yes"/>
      <point x="210" y="340" type="line"/>
      <point x="210" y="500" type="line"/>
      <point x="70" y="500" type="line"/>
      <point x="70" y="0" type="line"/>
    </contour>
    <contour>
      <point x="210" y="250" type="line"/>
      <point x="265" y="250" type="line" smooth="yes"/>
      <point x="321" y="250"/>
      <point x="350" y="221"/>
      <point x="350" y="170" type="curve" smooth="yes"/>
      <point x="350" y="119"/>
      <point x="321" y="90"/>
      <point x="265" y="90" type="curve" smooth="yes"/>
      <point x="210" y="90" type="line"/>
    </contour>
    <contour>
      <point x="705" y="0" type="line"/>
      <point x="705" y="500" type="line"/>
      <point x="565" y="500" type="line"/>
      <point x="565" y="0" type="line"/>
    </contour>
  </outline>
</glyph>
<glyph name="ia-cy" format="2">
  <advance width="545"/>
  <unicode hex="044F"/>
  <outline>
    <contour>
      <point x="105" y="-10" type="curve" smooth="yes"/>
      <point x="176" y="-10"/>
      <point x="207" y="25"/>
      <point x="220" y="70" type="curve" smooth="yes"/>
      <point x="240" y="140" type="line" smooth="yes"/>
      <point x="247" y="167"/>
      <point x="264" y="180"/>
      <point x="290" y="180" type="curve" smooth="yes"/>
      <point x="335" y="180" type="line"/>
      <point x="335" y="0" type="line"/>
      <point x="475" y="0" type="line"/>
      <point x="475" y="500" type="line"/>
      <point x="275" y="500" type="line" smooth="yes"/>
      <point x="120" y="500"/>
      <point x="55" y="436"/>
      <point x="55" y="345" type="curve" smooth="yes"/>
      <point x="55" y="286"/>
      <point x="87" y="256"/>
      <point x="120" y="237" type="curve" smooth="yes"/>
      <point x="139" y="226"/>
      <point x="160" y="219"/>
      <point x="185" y="215" type="curve"/>
      <point x="172" y="213"/>
      <point x="161" y="210"/>
      <point x="150" y="206" type="curve"/>
      <point x="131" y="198"/>
      <point x="112" y="185"/>
      <point x="105" y="160" type="curve" smooth="yes"/>
      <point x="90" y="105" type="line" smooth="yes"/>
      <point x="86" y="90"/>
      <point x="76" y="80"/>
      <point x="65" y="80" type="curve" smooth="yes"/>
      <point x="61" y="80"/>
      <point x="56" y="81"/>
      <point x="51" y="82" type="curve"/>
      <point x="45" y="85" type="line"/>
      <point x="40" y="85" type="line"/>
      <point x="25" y="5" type="line"/>
      <point x="32" y="2"/>
      <point x="40" y="0"/>
      <point x="48" y="-3" type="curve"/>
      <point x="63" y="-7"/>
      <point x="82" y="-10"/>
    </contour>
    <contour>
      <point x="275" y="270" type="line" smooth="yes"/>
      <point x="222" y="270"/>
      <point x="195" y="293"/>
      <point x="195" y="340" type="curve" smooth="yes"/>
      <point x="195" y="387"/>
      <point x="222" y="410"/>
      <point x="275" y="410" type="curve" smooth="yes"/>
      <point x="335" y="410" type="line"/>
      <point x="335" y="270" type="line"/>
    </contour>
  </outline>
</glyph>
<glyph name="dzhe-cy" format="2">
  <advance width="580"/>
  <unicode hex="045F"/>
  <outline>
    <contour>
      <point x="340" y="-140" type="line"/>
      <point x="355" y="0" type="line"/>
      <point x="510" y="0" type="line"/>
      <point x="510" y="500" type="line"/>
      <point x="370" y="500" type="line"/>
      <point x="370" y="90" type="line"/>
      <point x="210" y="90" type="line"/>
      <point x="210" y="500" type="line"/>
      <point x="70" y="500" type="line"/>
      <point x="70" y="0" type="line"/>
      <point x="225" y="0" type="line"/>
      <point x="240" y="-140" type="line"/>
    </contour>
  </outline>
</glyph>
<glyph name="yat-cy" format="2">
  <advance width="540"/>
  <unicode hex="0463"/>
  <outline>
    <contour>
      <point x="295" y="0" type="line" smooth="yes"/>
      <point x="460" y="0"/>
      <point x="520" y="60"/>
      <point x="520" y="170" type="curve" smooth="yes"/>
      <point x="520" y="280"/>
      <point x="460" y="340"/>
      <point x="295" y="340" type="curve" smooth="yes"/>
      <point x="230" y="340" type="line"/>
      <point x="230" y="700" type="line"/>
      <point x="90" y="700" type="line"/>
      <point x="90" y="0" type="line"/>
    </contour>
    <contour>
      <point x="230" y="250" type="line"/>
      <point x="295" y="250" type="line"/>
      <point x="351" y="250"/>
      <point x="380" y="221"/>
      <point x="380" y="170" type="curve" smooth="yes"/>
      <point x="380" y="119"/>
      <point x="351" y="90"/>
      <point x="295" y="90" type="curve" smooth="yes"/>
      <point x="230" y="90" type="line"/>
    </contour>
    <contour>
      <point x="385" y="410" type="line"/>
      <point x="385" y="500" type="line"/>
      <point x="15" y="500" type="line"/>
      <point x="15" y="410" type="line"/>
    </contour>
  </outline>
</glyph>
<glyph name="Yusbig-cy" format="2">
  <advance width="900"/>
  <unicode hex="046A"/>
  <outline>
    <contour>
      <point x="110" y="-10" type="curve" smooth="yes"/>
      <point x="181" y="-10"/>
      <point x="223" y="34"/>
      <point x="235" y="90" type="curve" smooth="yes"/>
      <point x="270" y="250" type="line"/>
      <point x="281" y="295"/>
      <point x="300" y="315"/>
      <point x="345" y="315" type="curve" smooth="yes"/>
      <point x="380" y="315" type="line"/>
      <point x="380" y="0" type="line"/>
      <point x="520" y="0" type="line"/>
      <point x="520" y="315" type="line"/>
      <point x="555" y="315" type="line" smooth="yes"/>
      <point x="600" y="315"/>
      <point x="619" y="295"/>
      <point x="630" y="250" type="curve"/>
      <point x="665" y="90" type="line" smooth="yes"/>
      <point x="677" y="34"/>
      <point x="719" y="-10"/>
      <point x="790" y="-10" type="curve" smooth="yes"/>
      <point x="820" y="-10"/>
      <point x="844" y="-8"/>
      <point x="875" y="5" type="curve"/>
      <point x="865" y="85" type="line"/>
      <point x="860" y="85" type="line"/>
      <point x="854" y="81"/>
      <point x="850" y="80"/>
      <point x="841" y="80" type="curve" smooth="yes"/>
      <point x="822" y="80"/>
      <point x="810" y="92"/>
      <point x="805" y="115" type="curve" smooth="yes"/>
      <point x="775" y="255" type="line"/>
      <point x="754" y="343"/>
      <point x="677" y="368"/>
      <point x="572" y="374" type="curve"/>
      <point x="771" y="700" type="line"/>
      <point x="119" y="700" type="line"/>
      <point x="318" y="373" type="line"/>
      <point x="202" y="365"/>
      <point x="143" y="331"/>
      <point x="125" y="255" type="curve"/>
      <point x="95" y="115" type="line" smooth="yes"/>
      <point x="90" y="92"/>
      <point x="78" y="80"/>
      <point x="59" y="80" type="curve" smooth="yes"/>
      <point x="53" y="80"/>
      <point x="45" y="82"/>
      <point x="40" y="85" type="curve"/>
      <point x="35" y="85" type="line"/>
      <point x="25" y="5" type="line"/>
      <point x="47" y="-5"/>
      <point x="74" y="-10"/>
    </contour>
    <contour>
      <point x="296" y="610" type="line"/>
      <point x="599" y="610" type="line"/>
      <point x="451" y="365" type="line"/>
      <point x="447" y="365" type="line"/>
    </contour>
  </outline>
  <guideline angle="90" x="380" y="0"/>
  <guideline angle="90" x="480" y="0"/>
</glyph>
<glyph name="izhitsa-cy" format="2">
  <advance width="516"/>
  <unicode hex="0475"/>
  <outline>
    <contour>
      <point x="325" y="0" type="line"/>
      <point x="426" y="341" type="line" smooth="yes"/>
      <point x="444" y="402"/>
      <point x="464" y="421"/>
      <point x="482" y="421" type="curve" smooth="yes"/>
      <point x="490" y="421"/>
      <point x="499" y="420"/>
      <point x="506" y="416" type="curve"/>
      <point x="512" y="416" type="line"/>
      <point x="531" y="496" type="line"/>
      <point x="509" y="506"/>
      <point x="491" y="511"/>
      <point x="462" y="511" type="curve" smooth="yes"/>
      <point x="371" y="511"/>
      <point x="320" y="466"/>
      <point x="293" y="341" type="curve" smooth="yes"/>
      <point x="260" y="190" type="line" smooth="yes"/>
      <point x="256" y="172"/>
      <point x="253" y="153"/>
      <point x="252" y="135" type="curve"/>
      <point x="248" y="135" type="line"/>
      <point x="247" y="153"/>
      <point x="245" y="172"/>
      <point x="240" y="190" type="curve" smooth="yes"/>
      <point x="150" y="500" type="line"/>
      <point x="10" y="500" type="line"/>
      <point x="175" y="0" type="line"/>
    </contour>
  </outline>
</glyph>
<glyph name="Ghemiddlehook-cy" format="2">
  <advance width="610"/>
  <unicode hex="0494"/>
  <outline>
    <component base="Ge-cy"/>
    <contour>
      <point x="390" y="-100" type="curve" smooth="yes"/>
      <point x="506" y="-100"/>
      <point x="575" y="-30"/>
      <point x="575" y="70" type="curve" smooth="yes"/>
      <point x="575" y="205" type="line" smooth="yes"/>
      <point x="575" y="330"/>
      <point x="496" y="410"/>
      <point x="345" y="410" type="curve" smooth="yes"/>
      <point x="310" y="410"/>
      <point x="280" y="406"/>
      <point x="259" y="402" type="curve" smooth="yes"/>
      <point x="225" y="395" type="line"/>
      <point x="225" y="305" type="line"/>
      <point x="252" y="312" type="line" smooth="yes"/>
      <point x="269" y="316"/>
      <point x="292" y="320"/>
      <point x="320" y="320" type="curve" smooth="yes"/>
      <point x="397" y="320"/>
      <point x="435" y="282"/>
      <point x="435" y="205" type="curve" smooth="yes"/>
      <point x="435" y="70" type="line" smooth="yes"/>
      <point x="435" y="14"/>
      <point x="411" y="-10"/>
      <point x="380" y="-10" type="curve" smooth="yes"/>
      <point x="364" y="-10"/>
      <point x="348" y="-9"/>
      <point x="330" y="0" type="curve"/>
      <point x="320" y="0" type="line"/>
      <point x="305" y="-80" type="line"/>
      <point x="325" y="-92"/>
      <point x="354" y="-100"/>
    </contour>
  </outline>
</glyph>
<glyph name="Zhedescender-cy" format="2">
  <advance width="900"/>
  <unicode hex="0496"/>
  <outline>
    <component base="Zhe-cy"/>
    <contour>
      <point x="875" y="-150" type="line"/>
      <point x="875" y="5" type="line"/>
      <point x="750" y="0" type="line"/>
      <point x="770" y="-150" type="line"/>
    </contour>
  </outline>
</glyph>
<glyph name="zhedescender-cy" format="2">
  <advance width="770"/>
  <unicode hex="0497"/>
  <outline>
    <component base="zhe-cy"/>
    <contour>
      <point x="750" y="-140" type="line"/>
      <point x="750" y="5" type="line"/>
      <point x="625" y="0" type="line"/>
      <point x="645" y="-140" type="line"/>
    </contour>
  </outline>
</glyph>
<glyph name="Zedescender-cy" format="2">
  <advance width="535"/>
  <unicode hex="0498"/>
  <outline>
    <component base="Ze-cy"/>
    <contour>
      <point x="320" y="-150" type="line"/>
      <point x="320" y="5" type="line"/>
      <point x="195" y="0" type="line"/>
      <point x="215" y="-150" type="line"/>
    </contour>
  </outline>
</glyph>
<glyph name="zedescender-cy" format="2">
  <advance width="465"/>
  <unicode hex="0499"/>
  <outline>
    <component base="ze-cy"/>
    <contour>
      <point x="298" y="-140" type="line"/>
      <point x="298" y="5" type="line"/>
      <point x="173" y="0" type="line"/>
      <point x="193" y="-140" type="line"/>
    </contour>
  </outline>
</glyph>
<glyph name="kadescender-cy" format="2">
  <advance width="540"/>
  <unicode hex="049B"/>
  <outline>
    <component base="ka-cy"/>
    <contour>
      <point x="520" y="-140" type="line"/>
      <point x="520" y="5" type="line"/>
      <point x="395" y="0" type="line"/>
      <point x="415" y="-140" type="line"/>
    </contour>
  </outline>
</glyph>
<glyph name="Kaverticalstroke-cy" format="2">
  <advance width="645"/>
  <unicode hex="049C"/>
  <outline>
    <component base="verticalbar-cy.case" xOffset="209" yOffset="-17"/>
    <contour>
      <point x="535" y="-10" type="curve" smooth="yes"/>
      <point x="562" y="-10"/>
      <point x="583" y="-7"/>
      <point x="598" y="-3" type="curve"/>
      <point x="602.388" y="-1.40426"/>
      <point x="616.897" y="3.87164"/>
      <point x="620" y="5" type="curve"/>
      <point x="610" y="85" type="line"/>
      <point x="605" y="85" type="line"/>
      <point x="599" y="82" type="line"/>
      <point x="594" y="81"/>
      <point x="589" y="80"/>
      <point x="586" y="80" type="curve" smooth="yes"/>
      <point x="567" y="80"/>
      <point x="555" y="92"/>
      <point x="550" y="115" type="curve" smooth="yes"/>
      <point x="520" y="255" type="line"/>
      <point x="509" y="302"/>
      <point x="482" y="330"/>
      <point x="455" y="346" type="curve" smooth="yes"/>
      <point x="440" y="355"/>
      <point x="423" y="362"/>
      <point x="405" y="365" type="curve"/>
      <point x="421" y="368"/>
      <point x="436" y="374"/>
      <point x="450" y="383" type="curve" smooth="yes"/>
      <point x="474" y="398"/>
      <point x="500" y="423"/>
      <point x="510" y="470" type="curve" smooth="yes"/>
      <point x="535" y="585" type="line" smooth="yes"/>
      <point x="540" y="608"/>
      <point x="551" y="620"/>
      <point x="570" y="620" type="curve" smooth="yes"/>
      <point x="575" y="620"/>
      <point x="580" y="618"/>
      <point x="584" y="617" type="curve"/>
      <point x="587" y="616"/>
      <point x="589" y="616"/>
      <point x="590" y="615" type="curve"/>
      <point x="595" y="615" type="line"/>
      <point x="605" y="695" type="line"/>
      <point x="581" y="702" type="line" smooth="yes"/>
      <point x="566" y="706"/>
      <point x="545" y="710"/>
      <point x="520" y="710" type="curve" smooth="yes"/>
      <point x="449" y="710"/>
      <point x="407" y="666"/>
      <point x="395" y="610" type="curve" smooth="yes"/>
      <point x="365" y="475" type="line" smooth="yes"/>
      <point x="354" y="424"/>
      <point x="336" y="405"/>
      <point x="255" y="405" type="curve" smooth="yes"/>
      <point x="225" y="405" type="line"/>
      <point x="225" y="700" type="line"/>
      <point x="85" y="700" type="line"/>
      <point x="85" y="0" type="line"/>
      <point x="225" y="0" type="line"/>
      <point x="225" y="315" type="line"/>
      <point x="270" y="315" type="line" smooth="yes"/>
      <point x="345" y="315"/>
      <point x="364" y="295"/>
      <point x="375" y="250" type="curve"/>
      <point x="410" y="90" type="line" smooth="yes"/>
      <point x="422" y="34"/>
      <point x="464" y="-10"/>
    </contour>
  </outline>
</glyph>
<glyph name="kaverticalstroke-cy" format="2">
  <advance width="588"/>
  <unicode hex="049D"/>
  <outline>
    <component base="verticalbar-cy" xOffset="202" yOffset="3"/>
    <contour>
      <point x="488" y="-10" type="curve" smooth="yes"/>
      <point x="511" y="-10"/>
      <point x="530" y="-7"/>
      <point x="545" y="-3" type="curve" smooth="yes"/>
      <point x="553" y="-1"/>
      <point x="561" y="2"/>
      <point x="568" y="5" type="curve"/>
      <point x="553" y="85" type="line"/>
      <point x="548" y="85" type="line"/>
      <point x="542" y="82" type="line"/>
      <point x="537" y="81"/>
      <point x="532" y="80"/>
      <point x="528" y="80" type="curve" smooth="yes"/>
      <point x="517" y="80"/>
      <point x="507" y="90"/>
      <point x="503" y="105" type="curve" smooth="yes"/>
      <point x="483" y="185" type="line" smooth="yes"/>
      <point x="475" y="217"/>
      <point x="450" y="236"/>
      <point x="427" y="247" type="curve" smooth="yes"/>
      <point x="414" y="253"/>
      <point x="399" y="258"/>
      <point x="383" y="260" type="curve"/>
      <point x="397" y="263"/>
      <point x="410" y="267"/>
      <point x="422" y="272" type="curve" smooth="yes"/>
      <point x="442" y="280"/>
      <point x="465" y="297"/>
      <point x="473" y="325" type="curve" smooth="yes"/>
      <point x="493" y="395" type="line" smooth="yes"/>
      <point x="497" y="410"/>
      <point x="507" y="420"/>
      <point x="518" y="420" type="curve" smooth="yes"/>
      <point x="523" y="420"/>
      <point x="528" y="418"/>
      <point x="532" y="417" type="curve" smooth="yes"/>
      <point x="535" y="416"/>
      <point x="537" y="416"/>
      <point x="538" y="415" type="curve"/>
      <point x="543" y="415" type="line"/>
      <point x="558" y="495" type="line"/>
      <point x="551" y="497"/>
      <point x="543" y="499"/>
      <point x="535" y="502" type="curve" smooth="yes"/>
      <point x="520" y="508"/>
      <point x="501" y="510"/>
      <point x="478" y="510" type="curve" smooth="yes"/>
      <point x="407" y="510"/>
      <point x="375" y="475"/>
      <point x="363" y="430" type="curve" smooth="yes"/>
      <point x="338" y="340" type="line" smooth="yes"/>
      <point x="331" y="315"/>
      <point x="319" y="300"/>
      <point x="288" y="300" type="curve" smooth="yes"/>
      <point x="210" y="300" type="line"/>
      <point x="210" y="500" type="line"/>
      <point x="70" y="500" type="line"/>
      <point x="70" y="0" type="line"/>
      <point x="210" y="0" type="line"/>
      <point x="210" y="210" type="line"/>
      <point x="298" y="210" type="line" smooth="yes"/>
      <point x="329" y="210"/>
      <point x="342" y="195"/>
      <point x="348" y="170" type="curve" smooth="yes"/>
      <point x="373" y="70" type="line" smooth="yes"/>
      <point x="384" y="25"/>
      <point x="417" y="-10"/>
    </contour>
  </outline>
</glyph>
<glyph name="Kabashkir-cy" format="2">
  <advance width="750"/>
  <unicode hex="04A0"/>
  <outline>
    <component base="Ka-cy" xOffset="135"/>
    <contour>
      <point x="220" y="610" type="line"/>
      <point x="360" y="700" type="line"/>
      <point x="10" y="700" type="line"/>
      <point x="10" y="610" type="line"/>
    </contour>
  </outline>
</glyph>
<glyph name="kabashkir-cy" format="2">
  <advance width="620"/>
  <unicode hex="04A1"/>
  <outline>
    <component base="ka-cy" xOffset="80"/>
    <contour>
      <point x="150" y="410" type="line"/>
      <point x="290" y="500" type="line"/>
      <point x="10" y="500" type="line"/>
      <point x="10" y="410" type="line"/>
    </contour>
  </outline>
</glyph>
<glyph name="Enghe-cy" format="2">
  <advance width="825"/>
  <unicode hex="04A4"/>
  <outline>
    <component base="En-cy"/>
    <contour>
      <point x="815" y="610" type="line"/>
      <point x="815" y="700" type="line"/>
      <point x="435" y="700" type="line"/>
      <point x="575" y="610" type="line"/>
    </contour>
  </outline>
</glyph>
<glyph name="Esdescender-cy" format="2">
  <advance width="535"/>
  <unicode hex="04AA"/>
  <outline>
    <component base="Es-cy"/>
    <contour>
      <point x="378" y="-150" type="line"/>
      <point x="378" y="5" type="line"/>
      <point x="253" y="0" type="line"/>
      <point x="273" y="-150" type="line"/>
    </contour>
  </outline>
</glyph>
<glyph name="esdescender-cy" format="2">
  <advance width="475"/>
  <unicode hex="04AB"/>
  <outline>
    <component base="es-cy"/>
    <contour>
      <point x="333" y="-140" type="line"/>
      <point x="333" y="5" type="line"/>
      <point x="208" y="0" type="line"/>
      <point x="228" y="-140" type="line"/>
    </contour>
  </outline>
</glyph>
<glyph name="Chekhakassian-cy" format="2">
  <advance width="630"/>
  <unicode hex="04CB"/>
  <outline>
    <component base="Che-cy"/>
    <contour>
      <point x="445" y="-150" type="line"/>
      <point x="465" y="0" type="line"/>
      <point x="545" y="0" type="line"/>
      <point x="545" y="90" type="line"/>
      <point x="340" y="90" type="line"/>
      <point x="340" y="-150" type="line"/>
    </contour>
  </outline>
</glyph>
<glyph name="chekhakassian-cy" format="2">
  <advance width="550"/>
  <unicode hex="04CC"/>
  <outline>
    <component base="che-cy"/>
    <contour>
      <point x="380" y="-140" type="line"/>
      <point x="400" y="0" type="line"/>
      <point x="480" y="0" type="line"/>
      <point x="480" y="90" type="line"/>
      <point x="275" y="90" type="line"/>
      <point x="275" y="-140" type="line"/>
    </contour>
  </outline>
</glyph>
<glyph name="dagger" format="2">
  <advance width="460"/>
  <unicode hex="2020"/>
  <outline>
    <contour>
      <point x="300" y="-200" type="line"/>
      <point x="300" y="390" type="line"/>
      <point x="440" y="390" type="line"/>
      <point x="440" y="480" type="line"/>
      <point x="300" y="480" type="line"/>
      <point x="300" y="700" type="line"/>
      <point x="160" y="700" type="line"/>
      <point x="160" y="480" type="line"/>
      <point x="20" y="480" type="line"/>
      <point x="20" y="390" type="line"/>
      <point x="160" y="390" type="line"/>
      <point x="160" y="-200" type="line"/>
    </contour>
  </outline>
</glyph>
<glyph name="daggerdbl" format="2">
  <advance width="460"/>
  <unicode hex="2021"/>
  <outline>
    <contour>
      <point x="300" y="-200" type="line"/>
      <point x="300" y="10" type="line"/>
      <point x="440" y="10" type="line"/>
      <point x="440" y="100" type="line"/>
      <point x="300" y="100" type="line"/>
      <point x="300" y="400" type="line"/>
      <point x="440" y="400" type="line"/>
      <point x="440" y="490" type="line"/>
      <point x="300" y="490" type="line"/>
      <point x="300" y="700" type="line"/>
      <point x="160" y="700" type="line"/>
      <point x="160" y="490" type="line"/>
      <point x="20" y="490" type="line"/>
      <point x="20" y="400" type="line"/>
      <point x="160" y="400" type="line"/>
      <point x="160" y="100" type="line"/>
      <point x="20" y="100" type="line"/>
      <point x="20" y="10" type="line"/>
      <point x="160" y="10" type="line"/>
      <point x="160" y="-200" type="line"/>
    </contour>
  </outline>
</glyph>
<glyph name="bullet" format="2">
  <advance width="430"/>
  <unicode hex="2022"/>
  <outline>
    <contour>
      <point x="215" y="170" type="curve" smooth="yes"/>
      <point x="295" y="170"/>
      <point x="355" y="230"/>
      <point x="355" y="310" type="curve" smooth="yes"/>
      <point x="355" y="390"/>
      <point x="295" y="450"/>
      <point x="215" y="450" type="curve" smooth="yes"/>
      <point x="135" y="450"/>
      <point x="75" y="390"/>
      <point x="75" y="310" type="curve" smooth="yes"/>
      <point x="75" y="230"/>
      <point x="135" y="170"/>
    </contour>
  </outline>
</glyph>
<glyph name="fraction" format="2">
  <advance width="470"/>
  <unicode hex="2044"/>
  <outline>
    <contour>
      <point x="50" y="0" type="line"/>
      <point x="520" y="700" type="line"/>
      <point x="370" y="700" type="line"/>
      <point x="-100" y="0" type="line"/>
    </contour>
  </outline>
</glyph>
<glyph name="euro" format="2">
  <advance width="565"/>
  <unicode hex="20AC"/>
  <outline>
    <contour>
      <point x="360" y="-10" type="curve" smooth="yes"/>
      <point x="417" y="-10"/>
      <point x="464" y="2"/>
      <point x="496" y="17" type="curve"/>
      <point x="515" y="25"/>
      <point x="531" y="34"/>
      <point x="545" y="45" type="curve"/>
      <point x="500" y="125" type="line"/>
      <point x="490" y="125" type="line"/>
      <point x="481" y="116"/>
      <point x="470" y="109"/>
      <point x="458" y="102" type="curve"/>
      <point x="437" y="91"/>
      <point x="407" y="80"/>
      <point x="370" y="80" type="curve" smooth="yes"/>
      <point x="295" y="80"/>
      <point x="241" y="120"/>
      <point x="225" y="250" type="curve"/>
      <point x="405" y="250" type="line"/>
      <point x="420" y="325" type="line"/>
      <point x="220" y="325" type="line"/>
      <point x="220" y="375" type="line"/>
      <point x="420" y="375" type="line"/>
      <point x="435" y="450" type="line"/>
      <point x="225" y="450" type="line"/>
      <point x="241" y="580"/>
      <point x="295" y="620"/>
      <point x="360" y="620" type="curve" smooth="yes"/>
      <point x="397" y="620"/>
      <point x="427" y="608"/>
      <point x="448" y="597" type="curve"/>
      <point x="460" y="590"/>
      <point x="471" y="583"/>
      <point x="480" y="575" type="curve"/>
      <point x="490" y="575" type="line"/>
      <point x="535" y="655" type="line"/>
      <point x="521" y="665"/>
      <point x="505" y="674"/>
      <point x="486" y="682" type="curve"/>
      <point x="454" y="697"/>
      <point x="407" y="710"/>
      <point x="350" y="710" type="curve" smooth="yes"/>
      <point x="211" y="710"/>
      <point x="109" y="635"/>
      <point x="85" y="450" type="curve"/>
      <point x="30" y="450" type="line"/>
      <point x="15" y="375" type="line"/>
      <point x="80" y="375" type="line"/>
      <point x="80" y="325" type="line"/>
      <point x="25" y="325" type="line"/>
      <point x="10" y="250" type="line"/>
      <point x="85" y="250" type="line"/>
      <point x="109" y="65"/>
      <point x="211" y="-10"/>
    </contour>
  </outline>
</glyph>
<glyph name="tugrik" format="2">
  <advance width="510"/>
  <unicode hex="20AE"/>
  <outline>
    <component base="T"/>
    <contour>
      <point x="453" y="395" type="line"/>
      <point x="453" y="470" type="line"/>
      <point x="58" y="370" type="line"/>
      <point x="58" y="295" type="line"/>
    </contour>
    <contour>
      <point x="453" y="270" type="line"/>
      <point x="453" y="345" type="line"/>
      <point x="58" y="245" type="line"/>
      <point x="58" y="170" type="line"/>
    </contour>
  </outline>
</glyph>
<glyph name="hryvnia" format="2">
  <advance width="547"/>
  <unicode hex="20B4"/>
  <outline>
    <contour>
      <point x="277" y="-10" type="curve" smooth="yes"/>
      <point x="351" y="-10"/>
      <point x="433" y="8"/>
      <point x="511" y="45" type="curve"/>
      <point x="466" y="125" type="line"/>
      <point x="456" y="125" type="line"/>
      <point x="406" y="93"/>
      <point x="343" y="76"/>
      <point x="289" y="76" type="curve" smooth="yes"/>
      <point x="232" y="76"/>
      <point x="186" y="103"/>
      <point x="186" y="160" type="curve" smooth="yes"/>
      <point x="186" y="229"/>
      <point x="227" y="269"/>
      <point x="329" y="331" type="curve" smooth="yes"/>
      <point x="429" y="393"/>
      <point x="516" y="444"/>
      <point x="516" y="540" type="curve" smooth="yes"/>
      <point x="516" y="661"/>
      <point x="433" y="710"/>
      <point x="291" y="710" type="curve"/>
      <point x="180" y="710"/>
      <point x="110" y="684"/>
      <point x="66" y="655" type="curve"/>
      <point x="111" y="575" type="line"/>
      <point x="121" y="575" type="line"/>
      <point x="144" y="596"/>
      <point x="196" y="620"/>
      <point x="271" y="620" type="curve" smooth="yes"/>
      <point x="349" y="620"/>
      <point x="376" y="585"/>
      <point x="376" y="530" type="curve" smooth="yes"/>
      <point x="376" y="468"/>
      <point x="344" y="433"/>
      <point x="254" y="385" type="curve"/>
      <point x="137" y="318"/>
      <point x="36" y="263"/>
      <point x="36" y="160" type="curve" smooth="yes"/>
      <point x="36" y="47"/>
      <point x="142" y="-10"/>
    </contour>
    <contour>
      <point x="532" y="250" type="line"/>
      <point x="532" y="325" type="line"/>
      <point x="15" y="325" type="line"/>
      <point x="15" y="250" type="line"/>
    </contour>
    <contour>
      <point x="532" y="375" type="line"/>
      <point x="532" y="450" type="line"/>
      <point x="15" y="450" type="line"/>
      <point x="15" y="375" type="line"/>
    </contour>
  </outline>
</glyph>
<glyph name="tenge" format="2">
  <advance width="510"/>
  <unicode hex="20B8"/>
  <outline>
    <contour>
      <point x="325" y="0" type="line"/>
      <point x="325" y="485" type="line"/>
      <point x="500" y="485" type="line"/>
      <point x="500" y="575" type="line"/>
      <point x="10" y="575" type="line"/>
      <point x="10" y="485" type="line"/>
      <point x="185" y="485" type="line"/>
      <point x="185" y="0" type="line"/>
    </contour>
    <contour>
      <point x="500" y="625" type="line"/>
      <point x="500" y="700" type="line"/>
      <point x="10" y="700" type="line"/>
      <point x="10" y="625" type="line"/>
    </contour>
  </outline>
</glyph>
<glyph name="ruble" format="2">
  <advance width="585"/>
  <unicode hex="20BD"/>
  <outline>
    <component base="P" xOffset="10"/>
    <contour>
      <point x="330" y="100" type="line"/>
      <point x="330" y="190" type="line"/>
      <point x="10" y="190" type="line"/>
      <point x="10" y="100" type="line"/>
    </contour>
    <contour>
      <point x="230" y="230" type="line"/>
      <point x="230" y="320" type="line"/>
      <point x="10" y="320" type="line"/>
      <point x="10" y="230" type="line"/>
    </contour>
  </outline>
</glyph>
<glyph name="apple" format="2">
  <advance width="1265"/>
  <unicode hex="F8FF"/>
  <outline>
    <contour>
      <point x="1255" y="420" type="line"/>
      <point x="1075" y="420" type="line"/>
      <point x="1165" y="255" type="line"/>
    </contour>
    <contour>
      <point x="175" y="260" type="line"/>
      <point x="175" y="425" type="line"/>
      <point x="10" y="260" type="line"/>
    </contour>
    <contour>
      <point x="290" y="255" type="curve" smooth="yes"/>
      <point x="335" y="255"/>
      <point x="375" y="295"/>
      <point x="375" y="340" type="curve" smooth="yes"/>
      <point x="375" y="385"/>
      <point x="335" y="425"/>
      <point x="290" y="425" type="curve" smooth="yes"/>
      <point x="245" y="425"/>
      <point x="205" y="385"/>
      <point x="205" y="340" type="curve" smooth="yes"/>
      <point x="205" y="295"/>
      <point x="245" y="255"/>
    </contour>
    <contour>
      <point x="555" y="420" type="line"/>
      <point x="375" y="420" type="line"/>
      <point x="465" y="255" type="line"/>
    </contour>
    <contour>
      <point x="690" y="260" type="line"/>
      <point x="600" y="425" type="line"/>
      <point x="510" y="260" type="line"/>
    </contour>
    <contour>
      <point x="845" y="260" type="line"/>
      <point x="705" y="400" type="line"/>
      <point x="705" y="260" type="line"/>
    </contour>
    <contour>
      <point x="865" y="420" type="line"/>
      <point x="725" y="420" type="line"/>
      <point x="865" y="280" type="line"/>
    </contour>
    <contour>
      <point x="1041" y="260" type="line"/>
      <point x="901" y="400" type="line"/>
      <point x="901" y="260" type="line"/>
    </contour>
    <contour>
      <point x="1061" y="420" type="line"/>
      <point x="921" y="420" type="line"/>
      <point x="1061" y="280" type="line"/>
    </contour>
  </outline>
</glyph>
<glyph name="Decyr.loclBGR" format="2">
  <advance width="690"/>
  <outline>
    <contour>
      <point x="412" y="700" type="line"/>
      <point x="282" y="700" type="line"/>
      <point x="107" y="90" type="line"/>
      <point x="40" y="90" type="line"/>
      <point x="40" y="-150" type="line"/>
      <point x="150" y="-150" type="line"/>
      <point x="170" y="0" type="line"/>
      <point x="525" y="0" type="line"/>
      <point x="545" y="-150" type="line"/>
      <point x="650" y="-150" type="line"/>
      <point x="650" y="90" type="line"/>
      <point x="586" y="90" type="line"/>
    </contour>
    <contour>
      <point x="329" y="460" type="line"/>
      <point x="334" y="476"/>
      <point x="336" y="495"/>
      <point x="339" y="510" type="curve"/>
      <point x="342" y="535" type="line"/>
      <point x="346" y="535" type="line"/>
      <point x="350" y="509" type="line"/>
      <point x="353" y="494"/>
      <point x="355" y="476"/>
      <point x="359" y="460" type="curve" smooth="yes"/>
      <point x="459" y="90" type="line"/>
      <point x="228" y="90" type="line"/>
    </contour>
  </outline>
</glyph>
<glyph name="Elcyr.loclBGR" format="2">
  <advance width="584"/>
  <outline>
    <contour>
      <point x="357" y="700" type="line"/>
      <point x="227" y="700" type="line"/>
      <point x="27" y="0" type="line"/>
      <point x="149" y="0" type="line"/>
      <point x="274" y="460" type="line"/>
      <point x="279" y="476"/>
      <point x="281" y="495"/>
      <point x="284" y="510" type="curve"/>
      <point x="287" y="535" type="line"/>
      <point x="291" y="535" type="line"/>
      <point x="295" y="509" type="line"/>
      <point x="298" y="494"/>
      <point x="300" y="476"/>
      <point x="304" y="460" type="curve" smooth="yes"/>
      <point x="429" y="0" type="line"/>
      <point x="557" y="0" type="line"/>
    </contour>
  </outline>
</glyph>
<glyph name="Zhecyr.loclBGR" format="2">
  <advance width="860"/>
  <outline>
    <contour>
      <point x="500" y="700" type="line" name="n00"/>
      <point x="360" y="700" type="line" name="n01"/>
      <point x="360" y="390" type="line"/>
      <point x="175" y="700" type="line"/>
      <point x="20" y="700" type="line"/>
      <point x="230" y="365" type="line"/>
      <point x="5" y="0" type="line" name="n06"/>
      <point x="165" y="0" type="line"/>
      <point x="360" y="330" type="line"/>
      <point x="360" y="0" type="line"/>
      <point x="500" y="0" type="line"/>
      <point x="500" y="330" type="line"/>
      <point x="695" y="0" type="line"/>
      <point x="855" y="0" type="line"/>
      <point x="630" y="365" type="line"/>
      <point x="840" y="700" type="line"/>
      <point x="685" y="700" type="line"/>
      <point x="500" y="390" type="line"/>
    </contour>
  </outline>
</glyph>
<glyph name="becyr.loclSRB" format="2">
  <advance width="540"/>
  <outline>
    <contour>
      <point x="270" y="-10" type="curve" smooth="yes"/>
      <point x="415" y="-10"/>
      <point x="500" y="74"/>
      <point x="500" y="230" type="curve" smooth="yes"/>
      <point x="500" y="245" type="line" smooth="yes"/>
      <point x="500" y="390"/>
      <point x="380" y="489"/>
      <point x="313" y="544" type="curve" smooth="yes"/>
      <point x="286" y="566"/>
      <point x="268" y="581"/>
      <point x="268" y="590" type="curve" smooth="yes"/>
      <point x="268" y="605"/>
      <point x="278" y="610"/>
      <point x="312" y="610" type="curve" smooth="yes"/>
      <point x="410" y="610" type="line"/>
      <point x="430" y="715" type="line"/>
      <point x="276" y="715" type="line" smooth="yes"/>
      <point x="157" y="715"/>
      <point x="107" y="668"/>
      <point x="107" y="598" type="curve" smooth="yes"/>
      <point x="107" y="554"/>
      <point x="153" y="514"/>
      <point x="217" y="470" type="curve"/>
      <point x="125" y="449"/>
      <point x="40" y="386"/>
      <point x="40" y="230" type="curve" smooth="yes"/>
      <point x="40" y="74"/>
      <point x="125" y="-10"/>
    </contour>
    <contour>
      <point x="270" y="80" type="curve" smooth="yes"/>
      <point x="219" y="80"/>
      <point x="180" y="121"/>
      <point x="180" y="230" type="curve" smooth="yes"/>
      <point x="180" y="335"/>
      <point x="224" y="378"/>
      <point x="284" y="407" type="curve"/>
      <point x="328" y="373"/>
      <point x="360" y="335"/>
      <point x="360" y="230" type="curve" smooth="yes"/>
      <point x="360" y="121"/>
      <point x="321" y="80"/>
    </contour>
  </outline>
</glyph>
<glyph name="brevecomb-cy" format="2">
  <advance width="420"/>
  <anchor x="210" y="500" name="_top"/>
  <outline>
    <contour>
      <point x="210" y="550" type="curve" smooth="yes"/>
      <point x="321" y="550"/>
      <point x="370" y="599"/>
      <point x="370" y="690" type="curve"/>
      <point x="260" y="690" type="line"/>
      <point x="260" y="639"/>
      <point x="241" y="620"/>
      <point x="210" y="620" type="curve" smooth="yes"/>
      <point x="179" y="620"/>
      <point x="160" y="639"/>
      <point x="160" y="690" type="curve"/>
      <point x="50" y="690" type="line"/>
      <point x="50" y="599"/>
      <point x="99" y="550"/>
    </contour>
  </outline>
</glyph>
<glyph name="decyr.loclBGR" format="2">
  <advance width="560"/>
  <outline>
    <contour>
      <point x="40" y="250" type="curve" smooth="yes"/>
      <point x="40" y="75"/>
      <point x="125" y="-10"/>
      <point x="250" y="-10" type="curve" smooth="yes"/>
      <point x="285" y="-10"/>
      <point x="321" y="0"/>
      <point x="350" y="20" type="curve"/>
      <point x="350" y="-10" type="line" smooth="yes"/>
      <point x="350" y="-81"/>
      <point x="310" y="-120"/>
      <point x="245" y="-120" type="curve" smooth="yes"/>
      <point x="204" y="-120"/>
      <point x="166" y="-107"/>
      <point x="135" y="-80" type="curve"/>
      <point x="125" y="-80" type="line"/>
      <point x="80" y="-160" type="line"/>
      <point x="132" y="-193"/>
      <point x="193" y="-210"/>
      <point x="255" y="-210" type="curve" smooth="yes"/>
      <point x="405" y="-210"/>
      <point x="490" y="-125"/>
      <point x="490" y="-10" type="curve" smooth="yes"/>
      <point x="490" y="500" type="line"/>
      <point x="390" y="500" type="line"/>
      <point x="380" y="440" type="line"/>
      <point x="375" y="440" type="line"/>
      <point x="342" y="483"/>
      <point x="295" y="510"/>
      <point x="240" y="510" type="curve" smooth="yes"/>
      <point x="125" y="510"/>
      <point x="40" y="425"/>
    </contour>
    <contour>
      <point x="180" y="250" type="curve" smooth="yes"/>
      <point x="180" y="375"/>
      <point x="220" y="415"/>
      <point x="265" y="415" type="curve" smooth="yes"/>
      <point x="305" y="415"/>
      <point x="331" y="386"/>
      <point x="350" y="355" type="curve"/>
      <point x="350" y="110" type="line"/>
      <point x="328" y="91"/>
      <point x="304" y="80"/>
      <point x="275" y="80" type="curve" smooth="yes"/>
      <point x="220" y="80"/>
      <point x="180" y="120"/>
    </contour>
  </outline>
</glyph>
<glyph name="descender-cy" format="2">
  <advance width="255"/>
  <anchor x="111" y="0" name="_bottom"/>
  <anchor x="20" y="0" name="_bottomright"/>
  <outline>
    <contour>
      <point x="205" y="-140" type="line"/>
      <point x="205" y="90" type="line"/>
      <point x="20" y="90" type="line"/>
      <point x="20" y="0" type="line"/>
      <point x="80" y="0" type="line"/>
      <point x="100" y="-140" type="line"/>
    </contour>
  </outline>
</glyph>
<glyph name="elcyr.loclBGR" format="2">
  <advance width="491"/>
  <outline>
    <contour>
      <point x="311" y="500" type="line"/>
      <point x="180" y="500" type="line"/>
      <point x="15" y="0" type="line"/>
      <point x="144" y="0" type="line"/>
      <point x="234" y="310" type="line" smooth="yes"/>
      <point x="237" y="321"/>
      <point x="239" y="334"/>
      <point x="240" y="345" type="curve" smooth="yes"/>
      <point x="242" y="365" type="line"/>
      <point x="246" y="365" type="line"/>
      <point x="248" y="345" type="line" smooth="yes"/>
      <point x="249" y="334"/>
      <point x="251" y="321"/>
      <point x="254" y="310" type="curve" smooth="yes"/>
      <point x="344" y="0" type="line"/>
      <point x="476" y="0" type="line"/>
    </contour>
  </outline>
</glyph>
<glyph name="hardcyr.loclBGR" format="2">
  <advance width="696"/>
  <outline>
    <component base="softcyr.loclBGR" xOffset="60"/>
    <contour>
      <point x="270" y="500" type="line"/>
      <point x="10" y="500" type="line"/>
      <point x="10" y="410" type="line"/>
      <point x="270" y="410" type="line"/>
    </contour>
  </outline>
</glyph>
<glyph name="yucyr.loclBGR" format="2">
  <advance width="750"/>
  <outline>
    <contour>
      <point x="210" y="300" type="line"/>
      <point x="210" y="700" type="line"/>
      <point x="110" y="700" type="line"/>
      <point x="70" y="660" type="line"/>
      <point x="70" y="0" type="line"/>
      <point x="210" y="0" type="line"/>
      <point x="210" y="210" type="line"/>
      <point x="223.638" y="210"/>
      <point x="259.884" y="210"/>
      <point x="270" y="210" type="curve"/>
      <point x="285" y="75"/>
      <point x="355" y="-10"/>
      <point x="490" y="-10" type="curve" smooth="yes"/>
      <point x="625" y="-10"/>
      <point x="710" y="75"/>
      <point x="710" y="250" type="curve" smooth="yes"/>
      <point x="710" y="425"/>
      <point x="625" y="510"/>
      <point x="490" y="510" type="curve" smooth="yes"/>
      <point x="355" y="510"/>
      <point x="285" y="429"/>
      <point x="270" y="300" type="curve"/>
    </contour>
    <contour>
      <point x="490" y="80" type="curve" smooth="yes"/>
      <point x="445" y="80"/>
      <point x="410" y="115"/>
      <point x="410" y="250" type="curve" smooth="yes"/>
      <point x="410" y="385"/>
      <point x="445" y="420"/>
      <point x="490" y="420" type="curve" smooth="yes"/>
      <point x="535" y="420"/>
      <point x="570" y="385"/>
      <point x="570" y="250" type="curve" smooth="yes"/>
      <point x="570" y="115"/>
      <point x="535" y="80"/>
    </contour>
  </outline>
</glyph>
